<svg width="225" height="225" version="1.1" xmlns="http://www.w3.org/2000/svg" desc="Created with imagetracer.js version 1.2.6" ><path fill="rgb(242,228,228)" stroke="rgb(242,228,228)" stroke-width="1" opacity="1" d="M 105.5 8 L 120 8.5 L 105.5 9 L 105.5 8 Z " /><path fill="rgb(242,228,228)" stroke="rgb(242,228,228)" stroke-width="1" opacity="1" d="M 108.5 15 L 122 15.5 L 108.5 16 L 108.5 15 Z " /><path fill="rgb(242,228,228)" stroke="rgb(242,228,228)" stroke-width="1" opacity="1" d="M 101.5 18 L 102.5 20 L 101.5 18 Z " /><path fill="rgb(242,228,228)" stroke="rgb(242,228,228)" stroke-width="1" opacity="1" d="M 119.5 19 L 112.5 27 L 119.5 19 Z " /><path fill="rgb(242,228,228)" stroke="rgb(242,228,228)" stroke-width="1" opacity="1" d="M 96.5 20 L 98.5 23 L 96.5 20 Z " /><path fill="rgb(242,228,228)" stroke="rgb(242,228,228)" stroke-width="1" opacity="1" d="M 124.5 20 L 122.5 23 L 124.5 20 Z " /><path fill="rgb(242,228,228)" stroke="rgb(242,228,228)" stroke-width="1" opacity="1" d="M 104.5 24 L 105 28.5 L 104 28.5 L 104.5 24 Z " /><path fill="rgb(242,228,228)" stroke="rgb(242,228,228)" stroke-width="1" opacity="1" d="M 74.5 25 L 77 25.5 L 74.5 26 L 74.5 25 Z " /><path fill="rgb(242,228,228)" stroke="rgb(242,228,228)" stroke-width="1" opacity="1" d="M 99.5 25 L 100 28.5 L 99 28.5 L 99.5 25 Z " /><path fill="rgb(242,228,228)" stroke="rgb(242,228,228)" stroke-width="1" opacity="1" d="M 155.5 26 L 156 32.5 L 155 32.5 L 155.5 26 Z " /><path fill="rgb(242,228,228)" stroke="rgb(242,228,228)" stroke-width="1" opacity="1" d="M 185.5 26 L 186.5 28 L 185.5 26 Z " /><path fill="rgb(242,228,228)" stroke="rgb(242,228,228)" stroke-width="1" opacity="1" d="M 38.5 27 L 37.5 29 L 38.5 27 Z " /><path fill="rgb(242,228,228)" stroke="rgb(242,228,228)" stroke-width="1" opacity="1" d="M 150.5 27 L 145.5 33 L 150.5 27 Z " /><path fill="rgb(242,228,228)" stroke="rgb(242,228,228)" stroke-width="1" opacity="1" d="M 43.5 29 L 42.5 31 L 43.5 29 Z " /><path fill="rgb(242,228,228)" stroke="rgb(242,228,228)" stroke-width="1" opacity="1" d="M 49.5 29 L 48.5 31 L 49.5 29 Z " /><path fill="rgb(242,228,228)" stroke="rgb(242,228,228)" stroke-width="1" opacity="1" d="M 115.5 29 L 114.5 31 L 115.5 29 Z " /><path fill="rgb(242,228,228)" stroke="rgb(242,228,228)" stroke-width="1" opacity="1" d="M 142.5 29 L 141.5 31 L 142.5 29 Z " /><path fill="rgb(242,228,228)" stroke="rgb(242,228,228)" stroke-width="1" opacity="1" d="M 175.5 29 L 176.5 31 L 175.5 29 Z " /><path fill="rgb(242,228,228)" stroke="rgb(242,228,228)" stroke-width="1" opacity="1" d="M 181.5 29 L 182.5 31 L 181.5 29 Z " /><path fill="rgb(242,228,228)" stroke="rgb(242,228,228)" stroke-width="1" opacity="1" d="M 74.5 30 L 77 30.5 L 74.5 31 L 74.5 30 Z " /><path fill="rgb(242,228,228)" stroke="rgb(242,228,228)" stroke-width="1" opacity="1" d="M 109.5 30 L 108.5 32 L 109.5 30 Z " /><path fill="rgb(242,228,228)" stroke="rgb(242,228,228)" stroke-width="1" opacity="1" d="M 98.5 31 L 97.5 33 L 98.5 31 Z " /><path fill="rgb(242,228,228)" stroke="rgb(242,228,228)" stroke-width="1" opacity="1" d="M 118.5 31 L 122 31.5 L 118.5 32 L 118.5 31 Z " /><path fill="rgb(242,228,228)" stroke="rgb(242,228,228)" stroke-width="1" opacity="1" d="M 85.5 33 L 86.5 35 L 85.5 33 Z " /><path fill="rgb(242,228,228)" stroke="rgb(242,228,228)" stroke-width="1" opacity="1" d="M 93.5 33 L 96 33.5 L 93.5 34 L 93.5 33 Z " /><path fill="rgb(242,228,228)" stroke="rgb(242,228,228)" stroke-width="1" opacity="1" d="M 43.5 34 L 34.5 44 L 43.5 34 Z " /><path fill="rgb(242,228,228)" stroke="rgb(242,228,228)" stroke-width="1" opacity="1" d="M 108.5 34 L 118 34.5 L 108.5 35 L 108.5 34 Z " /><path fill="rgb(242,228,228)" stroke="rgb(242,228,228)" stroke-width="1" opacity="1" d="M 138.5 34 L 137.5 36 L 138.5 34 Z " /><path fill="rgb(242,228,228)" stroke="rgb(242,228,228)" stroke-width="1" opacity="1" d="M 181.5 34 L 190.5 44 L 181.5 34 Z " /><path fill="rgb(242,228,228)" stroke="rgb(242,228,228)" stroke-width="1" opacity="1" d="M 66.5 35 L 70 35.5 L 66.5 36 L 66.5 35 Z " /><path fill="rgb(242,228,228)" stroke="rgb(242,228,228)" stroke-width="1" opacity="1" d="M 142.5 36 L 144 36.5 L 140.5 39 L 142.5 36 Z " /><path fill="rgb(242,228,228)" stroke="rgb(242,228,228)" stroke-width="1" opacity="1" d="M 27.5 38 L 26.5 40 L 27.5 38 Z " /><path fill="rgb(242,228,228)" stroke="rgb(242,228,228)" stroke-width="1" opacity="1" d="M 154.5 38 L 155 40.5 L 154 40.5 L 154.5 38 Z " /><path fill="rgb(242,228,228)" stroke="rgb(242,228,228)" stroke-width="1" opacity="1" d="M 57.5 39 L 56.5 41 L 57.5 39 Z " /><path fill="rgb(242,228,228)" stroke="rgb(242,228,228)" stroke-width="1" opacity="1" d="M 59.5 39 L 61 41.5 L 60 41.5 L 59.5 39 Z " /><path fill="rgb(242,228,228)" stroke="rgb(242,228,228)" stroke-width="1" opacity="1" d="M 198.5 39 L 199.5 41 L 198.5 39 Z " /><path fill="rgb(242,228,228)" stroke="rgb(242,228,228)" stroke-width="1" opacity="1" d="M 106.5 40 L 119 40.5 L 106.5 41 L 106.5 40 Z " /><path fill="rgb(242,228,228)" stroke="rgb(242,228,228)" stroke-width="1" opacity="1" d="M 166.5 40 L 165.5 42 L 166.5 40 Z " /><path fill="rgb(242,228,228)" stroke="rgb(242,228,228)" stroke-width="1" opacity="1" d="M 29.5 43 L 28.5 45 L 29.5 43 Z " /><path fill="rgb(242,228,228)" stroke="rgb(242,228,228)" stroke-width="1" opacity="1" d="M 195.5 43 L 196.5 45 L 195.5 43 Z " /><path fill="rgb(242,228,228)" stroke="rgb(242,228,228)" stroke-width="1" opacity="1" d="M 163.5 44 L 162.5 46 L 163.5 44 Z " /><path fill="rgb(242,228,228)" stroke="rgb(242,228,228)" stroke-width="1" opacity="1" d="M 183.5 44 L 187 47.5 L 182.5 52 L 186 47.5 L 183.5 44 Z " /><path fill="rgb(242,228,228)" stroke="rgb(242,228,228)" stroke-width="1" opacity="1" d="M 202.5 44 L 203.5 46 L 202.5 44 Z " /><path fill="rgb(242,228,228)" stroke="rgb(242,228,228)" stroke-width="1" opacity="1" d="M 156.5 46 L 158.5 49 L 156.5 46 Z " /><path fill="rgb(242,228,228)" stroke="rgb(242,228,228)" stroke-width="1" opacity="1" d="M 50.5 47 L 52.5 50 L 50.5 47 Z " /><path fill="rgb(242,228,228)" stroke="rgb(242,228,228)" stroke-width="1" opacity="1" d="M 30.5 48 L 29.5 50 L 30.5 48 Z " /><path fill="rgb(242,228,228)" stroke="rgb(242,228,228)" stroke-width="1" opacity="1" d="M 164.5 48 L 165.5 50 L 164.5 48 Z " /><path fill="rgb(242,228,228)" stroke="rgb(242,228,228)" stroke-width="1" opacity="1" d="M 194.5 48 L 195.5 50 L 194.5 48 Z " /><path fill="rgb(242,228,228)" stroke="rgb(242,228,228)" stroke-width="1" opacity="1" d="M 45.5 49 L 47.5 52 L 45.5 49 Z " /><path fill="rgb(242,228,228)" stroke="rgb(242,228,228)" stroke-width="1" opacity="1" d="M 161.5 50 L 162.5 52 L 161.5 50 Z " /><path fill="rgb(242,228,228)" stroke="rgb(242,228,228)" stroke-width="1" opacity="1" d="M 61.5 51 L 55.5 58 L 53 56.5 L 54.5 57 L 61.5 51 Z " /><path fill="rgb(242,228,228)" stroke="rgb(242,228,228)" stroke-width="1" opacity="1" d="M 168.5 52 L 166.5 55 L 168.5 52 Z " /><path fill="rgb(242,228,228)" stroke="rgb(242,228,228)" stroke-width="1" opacity="1" d="M 69.5 54 L 68.5 56 L 69.5 54 Z " /><path fill="rgb(242,228,228)" stroke="rgb(242,228,228)" stroke-width="1" opacity="1" d="M 155.5 54 L 156.5 56 L 155.5 54 Z " /><path fill="rgb(242,228,228)" stroke="rgb(242,228,228)" stroke-width="1" opacity="1" d="M 188.5 54 L 191 54.5 L 188.5 55 L 188.5 54 Z " /><path fill="rgb(242,228,228)" stroke="rgb(242,228,228)" stroke-width="1" opacity="1" d="M 111.5 55 L 79.5 88 L 111.5 55 Z " /><path fill="rgb(242,228,228)" stroke="rgb(242,228,228)" stroke-width="1" opacity="1" d="M 113.5 55 L 122.5 65 L 113.5 55 Z " /><path fill="rgb(242,228,228)" stroke="rgb(242,228,228)" stroke-width="1" opacity="1" d="M 177.5 55 L 174.5 59 L 177.5 55 Z " /><path fill="rgb(242,228,228)" stroke="rgb(242,228,228)" stroke-width="1" opacity="1" d="M 192.5 55 L 194.5 58 L 192.5 55 Z " /><path fill="rgb(242,228,228)" stroke="rgb(242,228,228)" stroke-width="1" opacity="1" d="M 153.5 57 L 154.5 59 L 153.5 57 Z " /><path fill="rgb(242,228,228)" stroke="rgb(242,228,228)" stroke-width="1" opacity="1" d="M 169.5 57 L 170.5 59 L 169.5 57 Z " /><path fill="rgb(242,228,228)" stroke="rgb(242,228,228)" stroke-width="1" opacity="1" d="M 64.5 58 L 58.5 65 L 64.5 58 Z " /><path fill="rgb(242,228,228)" stroke="rgb(242,228,228)" stroke-width="1" opacity="1" d="M 160.5 58 L 166.5 65 L 160.5 58 Z " /><path fill="rgb(242,228,228)" stroke="rgb(242,228,228)" stroke-width="1" opacity="1" d="M 191.5 59 L 193.5 62 L 191.5 59 Z " /><path fill="rgb(242,228,228)" stroke="rgb(242,228,228)" stroke-width="1" opacity="1" d="M 35.5 61 L 36.5 63 L 35.5 61 Z " /><path fill="rgb(242,228,228)" stroke="rgb(242,228,228)" stroke-width="1" opacity="1" d="M 178.5 61 L 177.5 63 L 178.5 61 Z " /><path fill="rgb(242,228,228)" stroke="rgb(242,228,228)" stroke-width="1" opacity="1" d="M 51.5 62 L 50.5 64 L 49 63.5 L 51.5 62 Z " /><path fill="rgb(242,228,228)" stroke="rgb(242,228,228)" stroke-width="1" opacity="1" d="M 157.5 64 L 160.5 68 L 157.5 64 Z " /><path fill="rgb(242,228,228)" stroke="rgb(242,228,228)" stroke-width="1" opacity="1" d="M 38.5 65 L 41 66.5 L 39.5 67 L 38.5 65 Z " /><path fill="rgb(242,228,228)" stroke="rgb(242,228,228)" stroke-width="1" opacity="1" d="M 34.5 67 L 35.5 69 L 34.5 67 Z " /><path fill="rgb(242,228,228)" stroke="rgb(242,228,228)" stroke-width="1" opacity="1" d="M 55.5 68 L 54.5 70 L 55.5 68 Z " /><path fill="rgb(242,228,228)" stroke="rgb(242,228,228)" stroke-width="1" opacity="1" d="M 169.5 68 L 170.5 70 L 169.5 68 Z " /><path fill="rgb(242,228,228)" stroke="rgb(242,228,228)" stroke-width="1" opacity="1" d="M 181.5 68 L 182.5 70 L 181.5 68 Z " /><path fill="rgb(242,228,228)" stroke="rgb(242,228,228)" stroke-width="1" opacity="1" d="M 43.5 71 L 44.5 73 L 43.5 71 Z " /><path fill="rgb(242,228,228)" stroke="rgb(242,228,228)" stroke-width="1" opacity="1" d="M 164.5 72 L 165.5 74 L 164.5 72 Z " /><path fill="rgb(242,228,228)" stroke="rgb(242,228,228)" stroke-width="1" opacity="1" d="M 133.5 73 L 131.5 76 L 133.5 73 Z " /><path fill="rgb(242,228,228)" stroke="rgb(242,228,228)" stroke-width="1" opacity="1" d="M 40.5 74 L 41.5 76 L 40.5 74 Z " /><path fill="rgb(242,228,228)" stroke="rgb(242,228,228)" stroke-width="1" opacity="1" d="M 183.5 74 L 186 74.5 L 183.5 75 L 183.5 74 Z " /><path fill="rgb(242,228,228)" stroke="rgb(242,228,228)" stroke-width="1" opacity="1" d="M 135.5 75 L 113.5 98 L 135.5 75 Z " /><path fill="rgb(242,228,228)" stroke="rgb(242,228,228)" stroke-width="1" opacity="1" d="M 129.5 77 L 127.5 80 L 129.5 77 Z " /><path fill="rgb(242,228,228)" stroke="rgb(242,228,228)" stroke-width="1" opacity="1" d="M 137.5 79 L 169.5 112 L 137.5 79 Z " /><path fill="rgb(242,228,228)" stroke="rgb(242,228,228)" stroke-width="1" opacity="1" d="M 32.5 80 L 33.5 82 L 32.5 80 Z " /><path fill="rgb(242,228,228)" stroke="rgb(242,228,228)" stroke-width="1" opacity="1" d="M 124.5 82 L 122.5 85 L 124.5 82 Z " /><path fill="rgb(242,228,228)" stroke="rgb(242,228,228)" stroke-width="1" opacity="1" d="M 25.5 86 L 24.5 88 L 25.5 86 Z " /><path fill="rgb(242,228,228)" stroke="rgb(242,228,228)" stroke-width="1" opacity="1" d="M 120.5 86 L 118.5 89 L 120.5 86 Z " /><path fill="rgb(242,228,228)" stroke="rgb(242,228,228)" stroke-width="1" opacity="1" d="M 187.5 87 L 188.5 89 L 187.5 87 Z " /><path fill="rgb(242,228,228)" stroke="rgb(242,228,228)" stroke-width="1" opacity="1" d="M 75.5 89 L 97.5 112 L 75.5 89 Z " /><path fill="rgb(242,228,228)" stroke="rgb(242,228,228)" stroke-width="1" opacity="1" d="M 103.5 89 L 111.5 98 L 103.5 89 Z " /><path fill="rgb(242,228,228)" stroke="rgb(242,228,228)" stroke-width="1" opacity="1" d="M 73.5 91 L 75.5 94 L 73.5 91 Z " /><path fill="rgb(242,228,228)" stroke="rgb(242,228,228)" stroke-width="1" opacity="1" d="M 109.5 91 L 112.5 94 L 116 91.5 L 112.5 95 L 109.5 91 Z " /><path fill="rgb(242,228,228)" stroke="rgb(242,228,228)" stroke-width="1" opacity="1" d="M 77.5 95 L 79.5 98 L 77.5 95 Z " /><path fill="rgb(242,228,228)" stroke="rgb(242,228,228)" stroke-width="1" opacity="1" d="M 195.5 96 L 198 96.5 L 195.5 97 L 195.5 96 Z " /><path fill="rgb(242,228,228)" stroke="rgb(242,228,228)" stroke-width="1" opacity="1" d="M 209.5 96 L 210 98.5 L 209 98.5 L 209.5 96 Z " /><path fill="rgb(242,228,228)" stroke="rgb(242,228,228)" stroke-width="1" opacity="1" d="M 30.5 99 L 32.5 102 L 30.5 99 Z " /><path fill="rgb(242,228,228)" stroke="rgb(242,228,228)" stroke-width="1" opacity="1" d="M 190.5 99 L 191 101.5 L 190 101.5 L 190.5 99 Z " /><path fill="rgb(242,228,228)" stroke="rgb(242,228,228)" stroke-width="1" opacity="1" d="M 82.5 100 L 84.5 103 L 82.5 100 Z " /><path fill="rgb(242,228,228)" stroke="rgb(242,228,228)" stroke-width="1" opacity="1" d="M 201.5 100 L 205 100.5 L 201.5 101 L 201.5 100 Z " /><path fill="rgb(242,228,228)" stroke="rgb(242,228,228)" stroke-width="1" opacity="1" d="M 177.5 101 L 178 103.5 L 177 103.5 L 177.5 101 Z " /><path fill="rgb(242,228,228)" stroke="rgb(242,228,228)" stroke-width="1" opacity="1" d="M 193.5 101 L 196 101.5 L 193.5 102 L 193.5 101 Z " /><path fill="rgb(242,228,228)" stroke="rgb(242,228,228)" stroke-width="1" opacity="1" d="M 21.5 102 L 26 102.5 L 21.5 103 L 21.5 102 Z " /><path fill="rgb(242,228,228)" stroke="rgb(242,228,228)" stroke-width="1" opacity="1" d="M 64.5 102 L 55.5 112 L 64.5 102 Z " /><path fill="rgb(242,228,228)" stroke="rgb(242,228,228)" stroke-width="1" opacity="1" d="M 19.5 103 L 18.5 105 L 19.5 103 Z " /><path fill="rgb(242,228,228)" stroke="rgb(242,228,228)" stroke-width="1" opacity="1" d="M 28.5 103 L 30.5 106 L 28.5 103 Z " /><path fill="rgb(242,228,228)" stroke="rgb(242,228,228)" stroke-width="1" opacity="1" d="M 135.5 103 L 127.5 112 L 135.5 103 Z " /><path fill="rgb(242,228,228)" stroke="rgb(242,228,228)" stroke-width="1" opacity="1" d="M 86.5 104 L 88.5 107 L 86.5 104 Z " /><path fill="rgb(242,228,228)" stroke="rgb(242,228,228)" stroke-width="1" opacity="1" d="M 8.5 105 L 9 119.5 L 8 119.5 L 8.5 105 Z " /><path fill="rgb(242,228,228)" stroke="rgb(242,228,228)" stroke-width="1" opacity="1" d="M 216.5 105 L 217 119.5 L 216 119.5 L 216.5 105 Z " /><path fill="rgb(242,228,228)" stroke="rgb(242,228,228)" stroke-width="1" opacity="1" d="M 17.5 106 L 18 109.5 L 17 109.5 L 17.5 106 Z " /><path fill="rgb(242,228,228)" stroke="rgb(242,228,228)" stroke-width="1" opacity="1" d="M 40.5 106 L 41 118.5 L 40 118.5 L 40.5 106 Z " /><path fill="rgb(242,228,228)" stroke="rgb(242,228,228)" stroke-width="1" opacity="1" d="M 184.5 106 L 185 111.5 L 184 111.5 L 184.5 106 Z " /><path fill="rgb(242,228,228)" stroke="rgb(242,228,228)" stroke-width="1" opacity="1" d="M 202.5 106 L 201.5 108 L 202.5 106 Z " /><path fill="rgb(242,228,228)" stroke="rgb(242,228,228)" stroke-width="1" opacity="1" d="M 91.5 109 Q 98.5 112.5 91.5 116 L 94 112.5 L 91.5 109 Z " /><path fill="rgb(242,228,228)" stroke="rgb(242,228,228)" stroke-width="1" opacity="1" d="M 133.5 109 L 131 112.5 L 133.5 116 Q 126.5 112.5 133.5 109 Z " /><path fill="rgb(242,228,228)" stroke="rgb(242,228,228)" stroke-width="1" opacity="1" d="M 30.5 110 L 28.5 113 L 30.5 110 Z " /><path fill="rgb(242,228,228)" stroke="rgb(242,228,228)" stroke-width="1" opacity="1" d="M 207.5 112 L 208 116.5 L 207 116.5 L 207.5 112 Z " /><path fill="rgb(242,228,228)" stroke="rgb(242,228,228)" stroke-width="1" opacity="1" d="M 22.5 113 L 26 113.5 L 22.5 114 L 22.5 113 Z " /><path fill="rgb(242,228,228)" stroke="rgb(242,228,228)" stroke-width="1" opacity="1" d="M 55.5 113 L 87.5 146 L 55.5 113 Z " /><path fill="rgb(242,228,228)" stroke="rgb(242,228,228)" stroke-width="1" opacity="1" d="M 97.5 113 L 89.5 122 L 97.5 113 Z " /><path fill="rgb(242,228,228)" stroke="rgb(242,228,228)" stroke-width="1" opacity="1" d="M 127.5 113 L 149.5 136 L 127.5 113 Z " /><path fill="rgb(242,228,228)" stroke="rgb(242,228,228)" stroke-width="1" opacity="1" d="M 169.5 113 L 160.5 123 L 169.5 113 Z " /><path fill="rgb(242,228,228)" stroke="rgb(242,228,228)" stroke-width="1" opacity="1" d="M 184.5 113 L 185 118.5 L 184 118.5 L 184.5 113 Z " /><path fill="rgb(242,228,228)" stroke="rgb(242,228,228)" stroke-width="1" opacity="1" d="M 15.5 114 L 16.5 116 L 15.5 114 Z " /><path fill="rgb(242,228,228)" stroke="rgb(242,228,228)" stroke-width="1" opacity="1" d="M 31.5 115 L 30.5 117 L 31.5 115 Z " /><path fill="rgb(242,228,228)" stroke="rgb(242,228,228)" stroke-width="1" opacity="1" d="M 21.5 118 L 26 118.5 L 21.5 119 L 21.5 118 Z " /><path fill="rgb(242,228,228)" stroke="rgb(242,228,228)" stroke-width="1" opacity="1" d="M 136.5 118 L 138.5 121 L 136.5 118 Z " /><path fill="rgb(242,228,228)" stroke="rgb(242,228,228)" stroke-width="1" opacity="1" d="M 30.5 122 L 33 122.5 L 30.5 123 L 30.5 122 Z " /><path fill="rgb(242,228,228)" stroke="rgb(242,228,228)" stroke-width="1" opacity="1" d="M 140.5 122 L 142.5 125 L 140.5 122 Z " /><path fill="rgb(242,228,228)" stroke="rgb(242,228,228)" stroke-width="1" opacity="1" d="M 21.5 123 L 24 123.5 L 21.5 124 L 21.5 123 Z " /><path fill="rgb(242,228,228)" stroke="rgb(242,228,228)" stroke-width="1" opacity="1" d="M 34.5 124 L 35 126.5 L 34 126.5 L 34.5 124 Z " /><path fill="rgb(242,228,228)" stroke="rgb(242,228,228)" stroke-width="1" opacity="1" d="M 195.5 126 L 200 126.5 L 195.5 127 L 195.5 126 Z " /><path fill="rgb(242,228,228)" stroke="rgb(242,228,228)" stroke-width="1" opacity="1" d="M 27.5 127 L 30 127.5 L 27.5 128 L 27.5 127 Z " /><path fill="rgb(242,228,228)" stroke="rgb(242,228,228)" stroke-width="1" opacity="1" d="M 111.5 127 L 89.5 150 L 111.5 127 Z " /><path fill="rgb(242,228,228)" stroke="rgb(242,228,228)" stroke-width="1" opacity="1" d="M 113.5 127 L 121.5 136 L 113.5 127 Z " /><path fill="rgb(242,228,228)" stroke="rgb(242,228,228)" stroke-width="1" opacity="1" d="M 145.5 127 L 147.5 130 L 145.5 127 Z " /><path fill="rgb(242,228,228)" stroke="rgb(242,228,228)" stroke-width="1" opacity="1" d="M 112.5 130 L 115.5 134 L 112.5 131 L 109 133.5 L 112.5 130 Z " /><path fill="rgb(242,228,228)" stroke="rgb(242,228,228)" stroke-width="1" opacity="1" d="M 149.5 131 L 151.5 134 L 149.5 131 Z " /><path fill="rgb(242,228,228)" stroke="rgb(242,228,228)" stroke-width="1" opacity="1" d="M 194.5 131 L 198 131.5 L 194.5 132 L 194.5 131 Z " /><path fill="rgb(242,228,228)" stroke="rgb(242,228,228)" stroke-width="1" opacity="1" d="M 192.5 132 L 191.5 134 L 192.5 132 Z " /><path fill="rgb(242,228,228)" stroke="rgb(242,228,228)" stroke-width="1" opacity="1" d="M 106.5 136 L 104.5 139 L 106.5 136 Z " /><path fill="rgb(242,228,228)" stroke="rgb(242,228,228)" stroke-width="1" opacity="1" d="M 203.5 136 L 204 139.5 L 203 139.5 L 203.5 136 Z " /><path fill="rgb(242,228,228)" stroke="rgb(242,228,228)" stroke-width="1" opacity="1" d="M 145.5 137 L 113.5 170 L 145.5 137 Z " /><path fill="rgb(242,228,228)" stroke="rgb(242,228,228)" stroke-width="1" opacity="1" d="M 102.5 140 L 100.5 143 L 102.5 140 Z " /><path fill="rgb(242,228,228)" stroke="rgb(242,228,228)" stroke-width="1" opacity="1" d="M 201.5 143 L 200.5 145 L 201.5 143 Z " /><path fill="rgb(242,228,228)" stroke="rgb(242,228,228)" stroke-width="1" opacity="1" d="M 24.5 144 L 23.5 146 L 24.5 144 Z " /><path fill="rgb(242,228,228)" stroke="rgb(242,228,228)" stroke-width="1" opacity="1" d="M 184.5 144 L 183.5 146 L 184.5 144 Z " /><path fill="rgb(242,228,228)" stroke="rgb(242,228,228)" stroke-width="1" opacity="1" d="M 97.5 145 L 95.5 148 L 97.5 145 Z " /><path fill="rgb(242,228,228)" stroke="rgb(242,228,228)" stroke-width="1" opacity="1" d="M 93.5 149 L 91.5 152 L 93.5 149 Z " /><path fill="rgb(242,228,228)" stroke="rgb(242,228,228)" stroke-width="1" opacity="1" d="M 200.5 151 L 201.5 153 L 200.5 151 Z " /><path fill="rgb(242,228,228)" stroke="rgb(242,228,228)" stroke-width="1" opacity="1" d="M 30.5 154 L 29.5 156 L 30.5 154 Z " /><path fill="rgb(242,228,228)" stroke="rgb(242,228,228)" stroke-width="1" opacity="1" d="M 35.5 155 L 34.5 157 L 35.5 155 Z " /><path fill="rgb(242,228,228)" stroke="rgb(242,228,228)" stroke-width="1" opacity="1" d="M 54.5 155 L 55.5 157 L 54.5 155 Z " /><path fill="rgb(242,228,228)" stroke="rgb(242,228,228)" stroke-width="1" opacity="1" d="M 170.5 155 L 169.5 157 L 170.5 155 Z " /><path fill="rgb(242,228,228)" stroke="rgb(242,228,228)" stroke-width="1" opacity="1" d="M 178.5 155 L 176.5 158 L 178.5 155 Z " /><path fill="rgb(242,228,228)" stroke="rgb(242,228,228)" stroke-width="1" opacity="1" d="M 63.5 156 L 66.5 160 L 63.5 156 Z " /><path fill="rgb(242,228,228)" stroke="rgb(242,228,228)" stroke-width="1" opacity="1" d="M 161.5 156 L 155.5 163 L 161.5 156 Z " /><path fill="rgb(242,228,228)" stroke="rgb(242,228,228)" stroke-width="1" opacity="1" d="M 48.5 158 L 50 160.5 L 49 160.5 L 48.5 158 Z " /><path fill="rgb(242,228,228)" stroke="rgb(242,228,228)" stroke-width="1" opacity="1" d="M 61.5 158 L 66.5 164 L 61.5 158 Z " /><path fill="rgb(242,228,228)" stroke="rgb(242,228,228)" stroke-width="1" opacity="1" d="M 58.5 160 L 64.5 167 L 58.5 160 Z " /><path fill="rgb(242,228,228)" stroke="rgb(242,228,228)" stroke-width="1" opacity="1" d="M 102.5 160 L 111.5 170 L 102.5 160 Z " /><path fill="rgb(242,228,228)" stroke="rgb(242,228,228)" stroke-width="1" opacity="1" d="M 166.5 160 L 160.5 167 L 166.5 160 Z " /><path fill="rgb(242,228,228)" stroke="rgb(242,228,228)" stroke-width="1" opacity="1" d="M 68.5 161 L 69.5 163 L 68.5 161 Z " /><path fill="rgb(242,228,228)" stroke="rgb(242,228,228)" stroke-width="1" opacity="1" d="M 28.5 163 L 30.5 166 L 28.5 163 Z " /><path fill="rgb(242,228,228)" stroke="rgb(242,228,228)" stroke-width="1" opacity="1" d="M 51.5 163 L 55 165.5 L 52.5 164 L 51.5 163 Z " /><path fill="rgb(242,228,228)" stroke="rgb(242,228,228)" stroke-width="1" opacity="1" d="M 172.5 163 L 171.5 165 L 172.5 163 Z " /><path fill="rgb(242,228,228)" stroke="rgb(242,228,228)" stroke-width="1" opacity="1" d="M 182.5 163 L 183.5 165 L 182.5 163 Z " /><path fill="rgb(242,228,228)" stroke="rgb(242,228,228)" stroke-width="1" opacity="1" d="M 193.5 164 L 194.5 166 L 193.5 164 Z " /><path fill="rgb(242,228,228)" stroke="rgb(242,228,228)" stroke-width="1" opacity="1" d="M 175.5 165 L 176.5 167 L 175.5 165 Z " /><path fill="rgb(242,228,228)" stroke="rgb(242,228,228)" stroke-width="1" opacity="1" d="M 47.5 166 L 45.5 169 L 47.5 166 Z " /><path fill="rgb(242,228,228)" stroke="rgb(242,228,228)" stroke-width="1" opacity="1" d="M 179.5 168 L 180.5 170 L 179.5 168 Z " /><path fill="rgb(242,228,228)" stroke="rgb(242,228,228)" stroke-width="1" opacity="1" d="M 68.5 169 L 69.5 171 L 68.5 169 Z " /><path fill="rgb(242,228,228)" stroke="rgb(242,228,228)" stroke-width="1" opacity="1" d="M 156.5 169 L 155.5 171 L 156.5 169 Z " /><path fill="rgb(242,228,228)" stroke="rgb(242,228,228)" stroke-width="1" opacity="1" d="M 167.5 169 L 164.5 173 L 167.5 169 Z " /><path fill="rgb(242,228,228)" stroke="rgb(242,228,228)" stroke-width="1" opacity="1" d="M 40.5 172 L 38 175.5 L 38.5 177 L 37 175.5 L 40.5 172 Z " /><path fill="rgb(242,228,228)" stroke="rgb(242,228,228)" stroke-width="1" opacity="1" d="M 184.5 172 L 185.5 174 L 184.5 172 Z " /><path fill="rgb(242,228,228)" stroke="rgb(242,228,228)" stroke-width="1" opacity="1" d="M 58.5 174 L 55.5 178 L 58.5 174 Z " /><path fill="rgb(242,228,228)" stroke="rgb(242,228,228)" stroke-width="1" opacity="1" d="M 164.5 174 L 167 175.5 L 165.5 176 L 164.5 174 Z " /><path fill="rgb(242,228,228)" stroke="rgb(242,228,228)" stroke-width="1" opacity="1" d="M 29.5 175 L 30.5 177 L 29.5 175 Z " /><path fill="rgb(242,228,228)" stroke="rgb(242,228,228)" stroke-width="1" opacity="1" d="M 187.5 175 L 186.5 177 L 187.5 175 Z " /><path fill="rgb(242,228,228)" stroke="rgb(242,228,228)" stroke-width="1" opacity="1" d="M 195.5 175 L 194.5 177 L 195.5 175 Z " /><path fill="rgb(242,228,228)" stroke="rgb(242,228,228)" stroke-width="1" opacity="1" d="M 43.5 176 L 41.5 179 L 43.5 176 Z " /><path fill="rgb(242,228,228)" stroke="rgb(242,228,228)" stroke-width="1" opacity="1" d="M 62.5 176 L 61.5 178 L 62.5 176 Z " /><path fill="rgb(242,228,228)" stroke="rgb(242,228,228)" stroke-width="1" opacity="1" d="M 101.5 177 L 104 177.5 L 101.5 178 L 101.5 177 Z " /><path fill="rgb(242,228,228)" stroke="rgb(242,228,228)" stroke-width="1" opacity="1" d="M 171.5 177 L 170.5 179 L 171.5 177 Z " /><path fill="rgb(242,228,228)" stroke="rgb(242,228,228)" stroke-width="1" opacity="1" d="M 181.5 177 L 180.5 179 L 181.5 177 Z " /><path fill="rgb(242,228,228)" stroke="rgb(242,228,228)" stroke-width="1" opacity="1" d="M 21.5 179 L 22.5 181 L 21.5 179 Z " /><path fill="rgb(242,228,228)" stroke="rgb(242,228,228)" stroke-width="1" opacity="1" d="M 28.5 180 L 30.5 183 L 28.5 180 Z " /><path fill="rgb(242,228,228)" stroke="rgb(242,228,228)" stroke-width="1" opacity="1" d="M 183.5 180 L 180.5 184 L 183.5 180 Z " /><path fill="rgb(242,228,228)" stroke="rgb(242,228,228)" stroke-width="1" opacity="1" d="M 196.5 180 L 195.5 182 L 196.5 180 Z " /><path fill="rgb(242,228,228)" stroke="rgb(242,228,228)" stroke-width="1" opacity="1" d="M 34.5 181 L 43.5 191 L 34.5 181 Z " /><path fill="rgb(242,228,228)" stroke="rgb(242,228,228)" stroke-width="1" opacity="1" d="M 58.5 181 L 56.5 184 L 58.5 181 Z " /><path fill="rgb(242,228,228)" stroke="rgb(242,228,228)" stroke-width="1" opacity="1" d="M 190.5 181 L 181.5 191 L 190.5 181 Z " /><path fill="rgb(242,228,228)" stroke="rgb(242,228,228)" stroke-width="1" opacity="1" d="M 24.5 183 L 25.5 185 L 24.5 183 Z " /><path fill="rgb(242,228,228)" stroke="rgb(242,228,228)" stroke-width="1" opacity="1" d="M 106.5 184 L 119 184.5 L 106.5 185 L 106.5 184 Z " /><path fill="rgb(242,228,228)" stroke="rgb(242,228,228)" stroke-width="1" opacity="1" d="M 48.5 186 L 50.5 189 L 48.5 186 Z " /><path fill="rgb(242,228,228)" stroke="rgb(242,228,228)" stroke-width="1" opacity="1" d="M 197.5 186 L 196.5 188 L 197.5 186 Z " /><path fill="rgb(242,228,228)" stroke="rgb(242,228,228)" stroke-width="1" opacity="1" d="M 53.5 187 L 52.5 189 L 53.5 187 Z " /><path fill="rgb(242,228,228)" stroke="rgb(242,228,228)" stroke-width="1" opacity="1" d="M 88.5 188 L 90.5 191 L 88.5 188 Z " /><path fill="rgb(242,228,228)" stroke="rgb(242,228,228)" stroke-width="1" opacity="1" d="M 147.5 189 L 148.5 191 L 147.5 189 Z " /><path fill="rgb(242,228,228)" stroke="rgb(242,228,228)" stroke-width="1" opacity="1" d="M 112.5 190 L 118 190.5 L 111.5 192 L 112.5 190 Z " /><path fill="rgb(242,228,228)" stroke="rgb(242,228,228)" stroke-width="1" opacity="1" d="M 142.5 190 L 143 192.5 L 142 192.5 L 142.5 190 Z " /><path fill="rgb(242,228,228)" stroke="rgb(242,228,228)" stroke-width="1" opacity="1" d="M 87.5 193 L 88 197.5 L 87 197.5 L 87.5 193 Z " /><path fill="rgb(242,228,228)" stroke="rgb(242,228,228)" stroke-width="1" opacity="1" d="M 42.5 194 L 43.5 196 L 42.5 194 Z " /><path fill="rgb(242,228,228)" stroke="rgb(242,228,228)" stroke-width="1" opacity="1" d="M 48.5 194 L 49.5 196 L 48.5 194 Z " /><path fill="rgb(242,228,228)" stroke="rgb(242,228,228)" stroke-width="1" opacity="1" d="M 176.5 194 L 175.5 196 L 176.5 194 Z " /><path fill="rgb(242,228,228)" stroke="rgb(242,228,228)" stroke-width="1" opacity="1" d="M 182.5 194 L 181.5 196 L 182.5 194 Z " /><path fill="rgb(242,228,228)" stroke="rgb(242,228,228)" stroke-width="1" opacity="1" d="M 152.5 195 L 151.5 197 L 152.5 195 Z " /><path fill="rgb(242,228,228)" stroke="rgb(242,228,228)" stroke-width="1" opacity="1" d="M 187.5 196 L 186.5 198 L 187.5 196 Z " /><path fill="rgb(242,228,228)" stroke="rgb(242,228,228)" stroke-width="1" opacity="1" d="M 90.5 202 L 88.5 205 L 90.5 202 Z " /><path fill="rgb(242,228,228)" stroke="rgb(242,228,228)" stroke-width="1" opacity="1" d="M 132.5 203 L 135 204.5 L 134.5 206 L 134 204 L 132.5 203 Z " /><path fill="rgb(242,228,228)" stroke="rgb(242,228,228)" stroke-width="1" opacity="1" d="M 98.5 204 Q 103.1 202.7 101 208.5 L 100 208.5 Q 101.5 204.1 98.5 205 L 98.5 204 Z " /><path fill="rgb(242,228,228)" stroke="rgb(242,228,228)" stroke-width="1" opacity="1" d="M 104.5 208 L 108.5 209 L 110 208.5 Q 108.6 211.3 104 210 L 104.5 208 Z " /><path fill="rgb(242,228,228)" stroke="rgb(242,228,228)" stroke-width="1" opacity="1" d="M 120.5 208 L 123 209.5 L 121.5 210 L 120.5 208 Z " /><path fill="rgb(242,228,228)" stroke="rgb(242,228,228)" stroke-width="1" opacity="1" d="M 105.5 216 L 120 216.5 L 105.5 217 L 105.5 216 Z " /><path fill="rgb(255,255,255)" stroke="rgb(255,255,255)" stroke-width="1" opacity="1" d="M 0 0 L 98 0.5 L 79.5 4 L 58.5 13 Q 39.6 23.6 26 39.5 Q 14.3 52.8 7 70.5 L 2 86.5 L 0.5 98 L 0 0 Z " /><path fill="rgb(255,255,255)" stroke="rgb(255,255,255)" stroke-width="1" opacity="1" d="M 127.5 0 L 225 0 L 225 98.5 L 224 98.5 L 224 91.5 L 220 76.5 L 210 54.5 Q 200 38 185.5 26 Q 173.8 15.7 158.5 9 L 141.5 3 L 133.5 1 L 127.5 1 L 127.5 0 Z " /><path fill="rgb(255,255,255)" stroke="rgb(255,255,255)" stroke-width="1" opacity="1" d="M 99.5 5 L 125.5 5 L 147.5 10 Q 176.7 20.8 195 42.5 Q 208.9 58.1 216 80.5 L 220 99.5 L 220 124.5 L 216 144.5 L 207 165.5 Q 197.5 182 183.5 194 Q 165.8 209.3 140.5 217 L 124.5 220 L 100.5 220 Q 55.2 212.4 31 183.5 L 18 165.5 L 9 144.5 L 5 124.5 L 5 99.5 L 9 80.5 L 18 59.5 Q 27.5 43 41.5 31 Q 54.8 19.3 72.5 12 L 80.5 9 L 99.5 5 Z M 106 8 L 105 9 L 91 10 L 75 15 Q 57 22 44 34 Q 28 48 18 68 L 11 87 L 9 97 L 9 105 L 8 106 L 9 129 L 15 151 Q 22 168 34 182 Q 48 197 68 207 L 87 214 L 97 216 L 105 216 L 106 217 L 129 216 L 151 210 Q 168 203 182 191 Q 197 177 207 158 L 214 139 L 216 129 L 216 121 L 217 120 L 216 97 L 210 75 Q 203 57 191 44 Q 175 25 151 15 L 129 9 L 106 8 Z " /><path fill="rgb(255,255,255)" stroke="rgb(255,255,255)" stroke-width="1" opacity="1" d="M 108 16 L 126.5 16 L 127 17.5 L 126 20 L 124.5 20 L 114 30.5 L 125 32 L 125 35 L 118.5 35 L 117.5 34 L 108 34 Q 111.1 24.8 120 19.5 L 108 19 L 108 16 Z " /><path fill="rgb(255,255,255)" stroke="rgb(255,255,255)" stroke-width="1" opacity="1" d="M 90.5 17 Q 101.3 15.2 104 21.5 Q 106 32 100.5 35 L 91.5 37 L 85 32.5 L 83 24.5 L 86.5 19 L 90.5 17 Z M 92 20 L 88 24 L 89 31 L 94 34 L 98 33 L 100 29 L 99 23 Q 98 19 92 20 Z " /><path fill="rgb(255,255,255)" stroke="rgb(255,255,255)" stroke-width="1" opacity="1" d="M 132 17 L 137 18 L 132.5 37 L 129 36 L 132 17 Z " /><path fill="rgb(255,255,255)" stroke="rgb(255,255,255)" stroke-width="1" opacity="1" d="M 74.5 22 L 76 25 L 70.5 26 L 66 29.5 Q 67.8 33.7 69.5 31 L 78.5 31 L 80 32.5 L 81 38.5 Q 76.6 43.9 68 44 L 67 41.5 L 74.5 40 L 77 37.5 L 74.5 34 L 73.5 35 L 64.5 35 L 62 29.5 L 65.5 25 L 74.5 22 Z " /><path fill="rgb(255,255,255)" stroke="rgb(255,255,255)" stroke-width="1" opacity="1" d="M 149.5 22 L 156 25.5 L 155 26.5 L 155 37.5 L 153.5 45 L 150 42.5 Q 150.8 38.8 148.5 38 L 142.5 36 L 139.5 39 L 138.5 38 L 136 37.5 L 149.5 22 Z M 151 27 L 145 34 L 151 36 L 151 27 Z " /><path fill="rgb(255,255,255)" stroke="rgb(255,255,255)" stroke-width="1" opacity="1" d="M 166 31 L 171 33 L 162 46.5 L 168 51.5 L 166.5 54 L 157 46.5 L 166 31 Z " /><path fill="rgb(255,255,255)" stroke="rgb(255,255,255)" stroke-width="1" opacity="1" d="M 58.5 39 L 60 41.5 L 54.5 46 L 53 43.5 L 58.5 39 Z " /><path fill="rgb(255,255,255)" stroke="rgb(255,255,255)" stroke-width="1" opacity="1" d="M 44.5 41 L 46 44 L 50 46.5 L 52.5 50 Q 55.1 49.3 54 52 L 56.5 52 L 62.5 47 L 64 49.5 L 54.5 57 L 41 45.5 L 44.5 41 Z " /><path fill="rgb(255,255,255)" stroke="rgb(255,255,255)" stroke-width="1" opacity="1" d="M 101.5 41 L 123.5 41 L 138.5 45 Q 157.3 52.7 169 67.5 L 180 86.5 L 184 101.5 L 184 111.5 L 185 112.5 L 184 113.5 L 184 123.5 L 180 138.5 Q 172.3 157.3 157.5 169 Q 147.1 177.6 132.5 182 L 123.5 184 L 101.5 184 Q 71.5 178 56 157.5 Q 47.4 147.1 43 132.5 L 41 123.5 L 41 101.5 Q 47 71.5 67.5 56 Q 80.7 44.7 101.5 41 Z M 104 44 Q 83 47 71 58 Q 49 73 44 104 L 44 121 L 47 135 Q 52 149 61 159 Q 76 176 104 181 L 122 181 L 132 179 Q 145 175 155 167 Q 175 152 181 122 L 181 105 L 179 95 Q 175 80 167 71 Q 157 56 140 49 L 122 44 L 104 44 Z " /><path fill="rgb(255,255,255)" stroke="rgb(255,255,255)" stroke-width="1" opacity="1" d="M 182.5 44 L 186 47.5 L 178.5 55 L 171 60 L 170 56.5 L 182.5 44 Z " /><path fill="rgb(255,255,255)" stroke="rgb(255,255,255)" stroke-width="1" opacity="1" d="M 103.5 47 L 112 47.5 L 71 88.5 L 71 90 Q 73.7 88.9 73 91.5 L 77 94 L 79.5 98 L 82 99.5 L 84.5 103 Q 86.8 102.3 86 104.5 L 91 108.5 L 94 112.5 L 89.5 118 L 64.5 95 L 47 111.5 L 47 103.5 L 50 90.5 Q 57.3 72.3 71.5 61 Q 83.8 50.3 103.5 47 Z " /><path fill="rgb(255,255,255)" stroke="rgb(255,255,255)" stroke-width="1" opacity="1" d="M 113.5 47 Q 127.5 46.5 136.5 51 Q 153.6 57.9 164 71.5 Q 171.1 79.9 175 91.5 L 178 104.5 L 178 111.5 L 136.5 71 L 133.5 73 L 131 77 L 127 79.5 L 125.5 82 L 122 84.5 Q 122.8 86.8 120.5 86 L 116.5 91 L 112.5 94 L 107 89.5 L 130 64.5 L 113.5 47 Z " /><path fill="rgb(255,255,255)" stroke="rgb(255,255,255)" stroke-width="1" opacity="1" d="M 112.5 51 L 126 65.5 L 103 89.5 L 111.5 98 L 113.5 98 L 136.5 75 L 174 112.5 L 159.5 126 L 135.5 103 L 127 111.5 L 127 113.5 L 150 136.5 L 112.5 174 L 99 159.5 L 122 135.5 L 113.5 127 L 111.5 127 L 88.5 150 L 51 112.5 L 65.5 99 L 89.5 122 L 98 113.5 L 98 111.5 L 75 88.5 L 112.5 51 Z M 112 55 L 79 88 L 79 90 L 102 113 L 89 126 L 65 102 L 55 112 L 55 114 L 88 146 L 90 146 L 113 123 L 126 137 L 102 161 L 112 170 L 114 170 L 146 138 L 146 136 L 123 113 L 137 99 L 161 123 L 170 114 L 170 112 L 138 79 L 136 79 L 113 102 L 99 89 L 123 65 L 114 55 L 112 55 Z " /><path fill="rgb(255,255,255)" stroke="rgb(255,255,255)" stroke-width="1" opacity="1" d="M 33.5 55 L 53 60.5 L 50.5 63 Q 46 62 45 64.5 L 42 69.5 L 44 73.5 L 42.5 76 L 32 64.5 L 30 59.5 L 33.5 55 Z M 35 60 L 38 66 L 41 67 L 43 61 L 35 60 Z " /><path fill="rgb(255,255,255)" stroke="rgb(255,255,255)" stroke-width="1" opacity="1" d="M 186.5 55 L 191.5 55 L 196 59.5 L 199 66.5 L 196.5 68 Q 195.6 61.9 191.5 59 L 188 60.5 L 191 69.5 L 190 73 Q 187.9 74.6 182.5 74 Q 177.2 70.1 176 63 L 178.5 62 L 182.5 70 L 184.5 71 L 187 67.5 L 184 61.5 L 184 58.5 L 186.5 55 Z " /><path fill="rgb(255,255,255)" stroke="rgb(255,255,255)" stroke-width="1" opacity="1" d="M 199 71 Q 202.8 69.5 202 72.5 Q 207.1 80.4 208 91 Q 203.9 92.7 205 88.5 L 202.5 84 L 188.5 88 L 187 84 L 201 78.5 L 199 71 Z " /><path fill="rgb(255,255,255)" stroke="rgb(255,255,255)" stroke-width="1" opacity="1" d="M 23 72 L 41 79 L 38.5 84 L 29.5 85 L 24 87.5 L 37 91.5 L 36 95 L 17 90.5 L 19 84 L 34 81.5 L 22 75.5 L 23 72 Z " /><path fill="rgb(255,255,255)" stroke="rgb(255,255,255)" stroke-width="1" opacity="1" d="M 208.5 94 L 210 99.5 L 193.5 101 L 191 102 L 190 98.5 L 192.5 97 L 197.5 97 L 208.5 94 Z " /><path fill="rgb(255,255,255)" stroke="rgb(255,255,255)" stroke-width="1" opacity="1" d="M 22.5 97 Q 30.6 96.9 33 102.5 L 34 110.5 L 29.5 117 Q 26.3 119.3 19.5 118 L 17 117 Q 14 113.8 14 106.5 L 17 99 L 22.5 97 Z M 22 102 L 20 103 L 17 107 L 18 112 L 23 114 L 29 113 Q 32 112 31 106 Q 29 101 22 102 Z " /><path fill="rgb(255,255,255)" stroke="rgb(255,255,255)" stroke-width="1" opacity="1" d="M 203.5 106 Q 208.6 105.4 210 108.5 L 211 115.5 L 208.5 122 Q 205.2 123.1 206 120.5 Q 208.7 118.2 208 112.5 Q 205.5 107.5 203 112.5 L 201 121 L 195.5 122 L 192 119.5 L 191 110.5 L 192 107 Q 196.1 105.3 195 109.5 L 194 110.5 L 194 117 L 196.5 118 Q 200.4 115.9 200 109.5 L 203.5 106 Z " /><path fill="rgb(255,255,255)" stroke="rgb(255,255,255)" stroke-width="1" opacity="1" d="M 135.5 107 L 160.5 130 L 178 113.5 L 178 120.5 L 176 130.5 L 169 146.5 Q 162.1 158.1 151.5 166 Q 142.7 172.7 130.5 176 L 120.5 178 L 113.5 178 L 154 136.5 L 152 133.5 L 148 131 L 145.5 127 L 143 125.5 L 140.5 122 Q 138.3 122.8 139 120.5 L 134 116.5 L 131 112.5 L 135.5 107 Z " /><path fill="rgb(255,255,255)" stroke="rgb(255,255,255)" stroke-width="1" opacity="1" d="M 47.5 113 L 88.5 154 L 90 154 Q 88.9 151.3 91.5 152 L 94 148 L 98 145.5 L 99.5 143 L 103 140.5 Q 102.3 138.3 104.5 139 L 108.5 134 L 112.5 131 L 118 135.5 L 95 160.5 L 111.5 178 Q 97.8 178.2 88.5 174 L 79.5 170 L 67 161 L 60 152.5 L 52 138.5 Q 46.4 128.1 47.5 113 Z " /><path fill="rgb(255,255,255)" stroke="rgb(255,255,255)" stroke-width="1" opacity="1" d="M 33.5 122 L 34 127 L 27.5 127 L 16.5 130 L 15 124 L 32.5 123 L 33.5 122 Z " /><path fill="rgb(255,255,255)" stroke="rgb(255,255,255)" stroke-width="1" opacity="1" d="M 0.5 126 Q 8 174.5 39.5 199 Q 61.8 219.2 99 224.5 L 0 225 L 0.5 126 Z " /><path fill="rgb(255,255,255)" stroke="rgb(255,255,255)" stroke-width="1" opacity="1" d="M 193.5 127 Q 203.3 125.3 206 130.5 L 207 139.5 L 204 146 L 200 145.5 L 204 139.5 L 204 136.5 L 200.5 132 L 194.5 131 L 191 133.5 L 190 141 Q 184.8 142.8 187 135.5 L 191.5 128 L 193.5 127 Z " /><path fill="rgb(255,255,255)" stroke="rgb(255,255,255)" stroke-width="1" opacity="1" d="M 224.5 127 L 225 225 L 127 224.5 L 138.5 223 L 148.5 220 L 166.5 212 Q 184.8 201.8 198 186.5 Q 209.7 173.7 217 156.5 Q 223 144 224.5 127 Z " /><path fill="rgb(255,255,255)" stroke="rgb(255,255,255)" stroke-width="1" opacity="1" d="M 17 133 Q 21.5 131.3 20 136.5 L 21 140 L 37 136 L 38 140 L 23 145.5 L 26 151.5 L 23.5 153 Q 17.6 144.9 17 133 Z " /><path fill="rgb(255,255,255)" stroke="rgb(255,255,255)" stroke-width="1" opacity="1" d="M 39.5 145 Q 41.8 144.3 41 146.5 L 41 148.5 L 40 152.5 L 43 158 L 48 157 L 49 161 L 30.5 165 Q 27.3 163.3 27 158.5 L 39.5 145 Z M 37 154 L 32 161 L 39 160 L 40 159 L 39 156 L 37 154 Z " /><path fill="rgb(255,255,255)" stroke="rgb(255,255,255)" stroke-width="1" opacity="1" d="M 184.5 145 L 201 152.5 L 198.5 157 L 192.5 154 L 188 161.5 L 194 165.5 L 191.5 170 L 176 158.5 L 179.5 156 L 185.5 159 Q 189.6 156.3 189 151 L 183 149 L 184.5 145 Z " /><path fill="rgb(255,255,255)" stroke="rgb(255,255,255)" stroke-width="1" opacity="1" d="M 50.5 164 Q 54.5 163.5 55 166.5 L 51 181.5 L 59 174.5 L 60.5 172 L 64 174.5 L 51.5 189 L 47 186 L 51 170.5 L 44.5 176 L 40.5 179 L 38 175.5 L 50.5 164 Z " /><path fill="rgb(255,255,255)" stroke="rgb(255,255,255)" stroke-width="1" opacity="1" d="M 172.5 164 L 187 174 L 186 177.5 L 178.5 186 L 175 184.5 L 182 177.5 L 179.5 175 Q 176.2 173.9 177 176.5 L 172.5 181 L 171 179.5 L 176 172.5 L 172.5 169 L 166.5 175 L 164 173.5 L 172.5 164 Z " /><path fill="rgb(255,255,255)" stroke="rgb(255,255,255)" stroke-width="1" opacity="1" d="M 62.5 184 L 68 187.5 Q 69.1 190.8 66.5 190 L 61 186.5 L 62.5 184 Z " /><path fill="rgb(255,255,255)" stroke="rgb(255,255,255)" stroke-width="1" opacity="1" d="M 163.5 184 L 166 185.5 Q 166.8 187.8 164.5 187 L 159 190 L 158 187.5 L 163.5 184 Z " /><path fill="rgb(255,255,255)" stroke="rgb(255,255,255)" stroke-width="1" opacity="1" d="M 78 185 L 87.5 188 L 91 191.5 L 92 199.5 L 87.5 205 L 82.5 206 L 74.5 204 L 71 201.5 L 78 185 Z M 82 189 L 77 201 Q 78 204 85 202 Q 89 200 88 194 L 82 189 Z " /><path fill="rgb(255,255,255)" stroke="rgb(255,255,255)" stroke-width="1" opacity="1" d="M 144.5 186 Q 151 185 153 188.5 L 154 193.5 Q 150.8 198.3 144 199.5 L 146 205.5 L 141.5 207 L 138 193.5 L 138 188 L 144.5 186 Z M 145 189 L 142 190 L 143 196 L 148 195 Q 150 194 149 191 Q 148 188 145 189 Z " /><path fill="rgb(255,255,255)" stroke="rgb(255,255,255)" stroke-width="1" opacity="1" d="M 112.5 191 L 118 191 L 118 193.5 L 126 208.5 L 121.5 209 L 120 206 L 110.5 206 L 110 207.5 Q 108.8 210 105 209 L 112.5 191 Z M 114 195 L 112 201 L 112 203 L 118 203 L 116 198 Q 117 194 114 195 Z " /><path fill="rgb(255,255,255)" stroke="rgb(255,255,255)" stroke-width="1" opacity="1" d="M 96 204 L 100 205 Q 102 211 96 209 L 96 204 Z " /><path fill="rgb(255,255,255)" stroke="rgb(255,255,255)" stroke-width="1" opacity="1" d="M 130 204 L 134 204 L 134 205.5 L 135 208 Q 127.9 210.4 130 204 Z " /><path fill="rgb(183,146,146)" stroke="rgb(183,146,146)" stroke-width="1" opacity="1" d="M 99.5 0 L 104 0.5 L 99.5 1 L 99.5 0 Z " /><path fill="rgb(183,146,146)" stroke="rgb(183,146,146)" stroke-width="1" opacity="1" d="M 121.5 0 L 126 0.5 L 121.5 1 L 121.5 0 Z " /><path fill="rgb(183,146,146)" stroke="rgb(183,146,146)" stroke-width="1" opacity="1" d="M 92.5 1 L 95 1.5 L 92.5 2 L 92.5 1 Z " /><path fill="rgb(183,146,146)" stroke="rgb(183,146,146)" stroke-width="1" opacity="1" d="M 102.5 4 L 122 4.5 L 102.5 5 L 102.5 4 Z " /><path fill="rgb(183,146,146)" stroke="rgb(183,146,146)" stroke-width="1" opacity="1" d="M 98.5 9 L 101 9.5 L 98.5 10 L 98.5 9 Z " /><path fill="rgb(183,146,146)" stroke="rgb(183,146,146)" stroke-width="1" opacity="1" d="M 124.5 9 L 127 9.5 L 124.5 10 L 124.5 9 Z " /><path fill="rgb(183,146,146)" stroke="rgb(183,146,146)" stroke-width="1" opacity="1" d="M 92.5 10 L 95 10.5 L 92.5 11 L 92.5 10 Z " /><path fill="rgb(183,146,146)" stroke="rgb(183,146,146)" stroke-width="1" opacity="1" d="M 107.5 15 L 108 18.5 L 107 18.5 L 107.5 15 Z " /><path fill="rgb(183,146,146)" stroke="rgb(183,146,146)" stroke-width="1" opacity="1" d="M 122.5 15 L 125 15.5 L 122.5 16 L 122.5 15 Z " /><path fill="rgb(183,146,146)" stroke="rgb(183,146,146)" stroke-width="1" opacity="1" d="M 92.5 16 L 98 16.5 L 92.5 17 L 92.5 16 Z " /><path fill="rgb(183,146,146)" stroke="rgb(183,146,146)" stroke-width="1" opacity="1" d="M 174.5 18 L 175.5 20 L 174.5 18 Z " /><path fill="rgb(183,146,146)" stroke="rgb(183,146,146)" stroke-width="1" opacity="1" d="M 92.5 20 L 96 20.5 L 92.5 21 L 92.5 20 Z " /><path fill="rgb(183,146,146)" stroke="rgb(183,146,146)" stroke-width="1" opacity="1" d="M 149.5 21 L 144.5 27 L 149.5 21 Z " /><path fill="rgb(183,146,146)" stroke="rgb(183,146,146)" stroke-width="1" opacity="1" d="M 121.5 23 L 116.5 29 L 121.5 23 Z " /><path fill="rgb(183,146,146)" stroke="rgb(183,146,146)" stroke-width="1" opacity="1" d="M 181.5 23 L 183.5 26 L 181.5 23 Z " /><path fill="rgb(183,146,146)" stroke="rgb(183,146,146)" stroke-width="1" opacity="1" d="M 42.5 24 L 41.5 26 L 42.5 24 Z " /><path fill="rgb(183,146,146)" stroke="rgb(183,146,146)" stroke-width="1" opacity="1" d="M 49.5 24 L 48.5 26 L 49.5 24 Z " /><path fill="rgb(183,146,146)" stroke="rgb(183,146,146)" stroke-width="1" opacity="1" d="M 45.5 27 L 44.5 29 L 45.5 27 Z " /><path fill="rgb(183,146,146)" stroke="rgb(183,146,146)" stroke-width="1" opacity="1" d="M 111.5 27 L 110.5 29 L 111.5 27 Z " /><path fill="rgb(183,146,146)" stroke="rgb(183,146,146)" stroke-width="1" opacity="1" d="M 179.5 27 L 180.5 29 L 179.5 27 Z " /><path fill="rgb(183,146,146)" stroke="rgb(183,146,146)" stroke-width="1" opacity="1" d="M 187.5 28 L 197.5 39 L 187.5 28 Z " /><path fill="rgb(183,146,146)" stroke="rgb(183,146,146)" stroke-width="1" opacity="1" d="M 36.5 29 L 28.5 38 L 36.5 29 Z " /><path fill="rgb(183,146,146)" stroke="rgb(183,146,146)" stroke-width="1" opacity="1" d="M 150.5 30 L 151 34.5 L 150 34.5 L 150.5 30 Z " /><path fill="rgb(183,146,146)" stroke="rgb(183,146,146)" stroke-width="1" opacity="1" d="M 47.5 31 L 46.5 33 L 47.5 31 Z " /><path fill="rgb(183,146,146)" stroke="rgb(183,146,146)" stroke-width="1" opacity="1" d="M 79.5 31 L 80.5 33 L 79.5 31 Z " /><path fill="rgb(183,146,146)" stroke="rgb(183,146,146)" stroke-width="1" opacity="1" d="M 90.5 31 L 91.5 33 L 90.5 31 Z " /><path fill="rgb(183,146,146)" stroke="rgb(183,146,146)" stroke-width="1" opacity="1" d="M 122.5 31 L 125 31.5 L 122.5 32 L 122.5 31 Z " /><path fill="rgb(183,146,146)" stroke="rgb(183,146,146)" stroke-width="1" opacity="1" d="M 140.5 31 L 139.5 33 L 140.5 31 Z " /><path fill="rgb(183,146,146)" stroke="rgb(183,146,146)" stroke-width="1" opacity="1" d="M 177.5 31 L 178.5 33 L 177.5 31 Z " /><path fill="rgb(183,146,146)" stroke="rgb(183,146,146)" stroke-width="1" opacity="1" d="M 39.5 32 L 31.5 41 L 39.5 32 Z " /><path fill="rgb(183,146,146)" stroke="rgb(183,146,146)" stroke-width="1" opacity="1" d="M 185.5 32 L 193.5 41 L 185.5 32 Z " /><path fill="rgb(183,146,146)" stroke="rgb(183,146,146)" stroke-width="1" opacity="1" d="M 102.5 33 L 101.5 35 L 102.5 33 Z " /><path fill="rgb(183,146,146)" stroke="rgb(183,146,146)" stroke-width="1" opacity="1" d="M 155.5 33 L 156 35.5 L 155 35.5 L 155.5 33 Z " /><path fill="rgb(183,146,146)" stroke="rgb(183,146,146)" stroke-width="1" opacity="1" d="M 128.5 34 L 129 36 L 131 36.5 L 129.5 37 L 128.5 34 Z " /><path fill="rgb(183,146,146)" stroke="rgb(183,146,146)" stroke-width="1" opacity="1" d="M 122.5 35 L 125 35.5 L 122.5 36 L 122.5 35 Z " /><path fill="rgb(183,146,146)" stroke="rgb(183,146,146)" stroke-width="1" opacity="1" d="M 170.5 35 L 169.5 37 L 170.5 35 Z " /><path fill="rgb(183,146,146)" stroke="rgb(183,146,146)" stroke-width="1" opacity="1" d="M 80.5 39 L 79.5 41 L 80.5 39 Z " /><path fill="rgb(183,146,146)" stroke="rgb(183,146,146)" stroke-width="1" opacity="1" d="M 66 40 L 69 40.5 L 66.5 42 L 66 40 Z " /><path fill="rgb(183,146,146)" stroke="rgb(183,146,146)" stroke-width="1" opacity="1" d="M 119.5 40 L 122 40.5 L 119.5 41 L 119.5 40 Z " /><path fill="rgb(183,146,146)" stroke="rgb(183,146,146)" stroke-width="1" opacity="1" d="M 54.5 41 L 52.5 44 L 54.5 41 Z " /><path fill="rgb(183,146,146)" stroke="rgb(183,146,146)" stroke-width="1" opacity="1" d="M 24.5 42 L 23.5 44 L 24.5 42 Z " /><path fill="rgb(183,146,146)" stroke="rgb(183,146,146)" stroke-width="1" opacity="1" d="M 59.5 42 L 58.5 44 L 59.5 42 Z " /><path fill="rgb(183,146,146)" stroke="rgb(183,146,146)" stroke-width="1" opacity="1" d="M 67.5 43 L 68.5 45 L 67.5 43 Z " /><path fill="rgb(183,146,146)" stroke="rgb(183,146,146)" stroke-width="1" opacity="1" d="M 182.5 43 L 169.5 57 L 182.5 43 Z " /><path fill="rgb(183,146,146)" stroke="rgb(183,146,146)" stroke-width="1" opacity="1" d="M 104.5 44 L 109 44.5 L 104.5 45 L 104.5 44 Z " /><path fill="rgb(183,146,146)" stroke="rgb(183,146,146)" stroke-width="1" opacity="1" d="M 115.5 44 L 120 44.5 L 115.5 45 L 115.5 44 Z " /><path fill="rgb(183,146,146)" stroke="rgb(183,146,146)" stroke-width="1" opacity="1" d="M 27.5 45 L 26.5 47 L 27.5 45 Z " /><path fill="rgb(183,146,146)" stroke="rgb(183,146,146)" stroke-width="1" opacity="1" d="M 40.5 45 L 42.5 48 L 40.5 45 Z " /><path fill="rgb(183,146,146)" stroke="rgb(183,146,146)" stroke-width="1" opacity="1" d="M 197.5 45 L 198.5 47 L 197.5 45 Z " /><path fill="rgb(183,146,146)" stroke="rgb(183,146,146)" stroke-width="1" opacity="1" d="M 32.5 46 L 31.5 48 L 32.5 46 Z " /><path fill="rgb(183,146,146)" stroke="rgb(183,146,146)" stroke-width="1" opacity="1" d="M 106.5 46 L 119 46.5 L 113 47.5 L 130 65.5 L 106 88.5 L 129 64.5 L 112.5 48 L 71 88.5 L 111.5 47 Q 105.5 48.2 106.5 46 Z " /><path fill="rgb(183,146,146)" stroke="rgb(183,146,146)" stroke-width="1" opacity="1" d="M 162.5 46 L 163.5 48 L 162.5 46 Z " /><path fill="rgb(183,146,146)" stroke="rgb(183,146,146)" stroke-width="1" opacity="1" d="M 192.5 46 L 193.5 48 L 192.5 46 Z " /><path fill="rgb(183,146,146)" stroke="rgb(183,146,146)" stroke-width="1" opacity="1" d="M 60.5 47 L 57.5 51 L 60.5 47 Z " /><path fill="rgb(183,146,146)" stroke="rgb(183,146,146)" stroke-width="1" opacity="1" d="M 24.5 49 L 23.5 51 L 24.5 49 Z " /><path fill="rgb(183,146,146)" stroke="rgb(183,146,146)" stroke-width="1" opacity="1" d="M 64.5 49 L 63.5 51 L 64.5 49 Z " /><path fill="rgb(183,146,146)" stroke="rgb(183,146,146)" stroke-width="1" opacity="1" d="M 112.5 50 L 127 65.5 L 103 88.5 L 126 64.5 L 112.5 51 L 74 88.5 L 112.5 50 Z " /><path fill="rgb(183,146,146)" stroke="rgb(183,146,146)" stroke-width="1" opacity="1" d="M 48.5 52 L 51.5 56 L 48.5 52 Z " /><path fill="rgb(183,146,146)" stroke="rgb(183,146,146)" stroke-width="1" opacity="1" d="M 163.5 52 L 164.5 54 L 163.5 52 Z " /><path fill="rgb(183,146,146)" stroke="rgb(183,146,146)" stroke-width="1" opacity="1" d="M 181.5 52 L 179.5 55 L 181.5 52 Z " /><path fill="rgb(183,146,146)" stroke="rgb(183,146,146)" stroke-width="1" opacity="1" d="M 20.5 55 L 19.5 57 L 20.5 55 Z " /><path fill="rgb(183,146,146)" stroke="rgb(183,146,146)" stroke-width="1" opacity="1" d="M 66.5 56 L 65.5 58 L 66.5 56 Z " /><path fill="rgb(183,146,146)" stroke="rgb(183,146,146)" stroke-width="1" opacity="1" d="M 73.5 56 L 72.5 58 L 73.5 56 Z " /><path fill="rgb(183,146,146)" stroke="rgb(183,146,146)" stroke-width="1" opacity="1" d="M 158.5 56 L 159.5 58 L 158.5 56 Z " /><path fill="rgb(183,146,146)" stroke="rgb(183,146,146)" stroke-width="1" opacity="1" d="M 74.5 58 L 73.5 60 L 74.5 58 Z " /><path fill="rgb(183,146,146)" stroke="rgb(183,146,146)" stroke-width="1" opacity="1" d="M 69.5 59 L 67.5 62 L 69.5 59 Z " /><path fill="rgb(183,146,146)" stroke="rgb(183,146,146)" stroke-width="1" opacity="1" d="M 155.5 59 L 156.5 61 L 155.5 59 Z " /><path fill="rgb(183,146,146)" stroke="rgb(183,146,146)" stroke-width="1" opacity="1" d="M 173.5 59 L 172.5 61 L 173.5 59 Z " /><path fill="rgb(183,146,146)" stroke="rgb(183,146,146)" stroke-width="1" opacity="1" d="M 29.5 61 L 30.5 63 L 29.5 61 Z " /><path fill="rgb(183,146,146)" stroke="rgb(183,146,146)" stroke-width="1" opacity="1" d="M 70.5 61 L 61.5 71 L 70.5 61 Z " /><path fill="rgb(183,146,146)" stroke="rgb(183,146,146)" stroke-width="1" opacity="1" d="M 154.5 61 L 156.5 64 L 154.5 61 Z " /><path fill="rgb(183,146,146)" stroke="rgb(183,146,146)" stroke-width="1" opacity="1" d="M 32.5 65 L 33.5 67 L 32.5 65 Z " /><path fill="rgb(183,146,146)" stroke="rgb(183,146,146)" stroke-width="1" opacity="1" d="M 57.5 65 L 56.5 67 L 57.5 65 Z " /><path fill="rgb(183,146,146)" stroke="rgb(183,146,146)" stroke-width="1" opacity="1" d="M 167.5 65 L 168.5 67 L 167.5 65 Z " /><path fill="rgb(183,146,146)" stroke="rgb(183,146,146)" stroke-width="1" opacity="1" d="M 61.5 67 L 59.5 70 L 61.5 67 Z " /><path fill="rgb(183,146,146)" stroke="rgb(183,146,146)" stroke-width="1" opacity="1" d="M 163.5 67 L 165.5 70 L 163.5 67 Z " /><path fill="rgb(183,146,146)" stroke="rgb(183,146,146)" stroke-width="1" opacity="1" d="M 161.5 68 L 163.5 71 L 161.5 68 Z " /><path fill="rgb(183,146,146)" stroke="rgb(183,146,146)" stroke-width="1" opacity="1" d="M 37.5 71 L 39.5 74 L 37.5 71 Z " /><path fill="rgb(183,146,146)" stroke="rgb(183,146,146)" stroke-width="1" opacity="1" d="M 136.5 71 L 178 111.5 L 178.5 106 L 179 117.5 L 178 117.5 L 177.5 113 L 159.5 130 L 136.5 106 L 160.5 129 L 177 112.5 L 136.5 71 Z " /><path fill="rgb(183,146,146)" stroke="rgb(183,146,146)" stroke-width="1" opacity="1" d="M 179.5 71 L 181.5 74 L 179.5 71 Z " /><path fill="rgb(183,146,146)" stroke="rgb(183,146,146)" stroke-width="1" opacity="1" d="M 167.5 72 L 168.5 74 L 167.5 72 Z " /><path fill="rgb(183,146,146)" stroke="rgb(183,146,146)" stroke-width="1" opacity="1" d="M 59.5 73 L 58.5 75 L 59.5 73 Z " /><path fill="rgb(183,146,146)" stroke="rgb(183,146,146)" stroke-width="1" opacity="1" d="M 136.5 74 L 175 112.5 L 160.5 127 L 136 103.5 L 159.5 126 L 174 112.5 L 136.5 74 Z " /><path fill="rgb(183,146,146)" stroke="rgb(183,146,146)" stroke-width="1" opacity="1" d="M 43.5 75 L 42.5 77 L 43.5 75 Z " /><path fill="rgb(183,146,146)" stroke="rgb(183,146,146)" stroke-width="1" opacity="1" d="M 169.5 75 L 170.5 77 L 169.5 75 Z " /><path fill="rgb(183,146,146)" stroke="rgb(183,146,146)" stroke-width="1" opacity="1" d="M 135.5 79 L 112.5 103 L 99.5 89 L 112.5 102 L 135.5 79 Z " /><path fill="rgb(183,146,146)" stroke="rgb(183,146,146)" stroke-width="1" opacity="1" d="M 26.5 86 L 28 86.5 L 25.5 88 L 26.5 86 Z " /><path fill="rgb(183,146,146)" stroke="rgb(183,146,146)" stroke-width="1" opacity="1" d="M 79.5 89 L 103 112.5 L 89.5 126 L 102 112.5 L 79.5 89 Z " /><path fill="rgb(183,146,146)" stroke="rgb(183,146,146)" stroke-width="1" opacity="1" d="M 204.5 90 L 207 91.5 L 205.5 92 L 204.5 90 Z " /><path fill="rgb(183,146,146)" stroke="rgb(183,146,146)" stroke-width="1" opacity="1" d="M 223.5 93 L 224 95.5 L 223 95.5 L 223.5 93 Z " /><path fill="rgb(183,146,146)" stroke="rgb(183,146,146)" stroke-width="1" opacity="1" d="M 64.5 95 L 89 118.5 L 65.5 96 L 48 112.5 L 88.5 154 L 47 113.5 L 46.5 118 L 46 106.5 L 47 106.5 L 47.5 112 L 64.5 95 Z " /><path fill="rgb(183,146,146)" stroke="rgb(183,146,146)" stroke-width="1" opacity="1" d="M 9.5 98 L 10 100.5 L 9 100.5 L 9.5 98 Z " /><path fill="rgb(183,146,146)" stroke="rgb(183,146,146)" stroke-width="1" opacity="1" d="M 64.5 98 L 89 121.5 L 65.5 99 L 51 112.5 L 88.5 151 L 50 112.5 L 64.5 98 Z " /><path fill="rgb(183,146,146)" stroke="rgb(183,146,146)" stroke-width="1" opacity="1" d="M 215.5 98 L 216 100.5 L 215 100.5 L 215.5 98 Z " /><path fill="rgb(183,146,146)" stroke="rgb(183,146,146)" stroke-width="1" opacity="1" d="M 0.5 99 L 1 103.5 L 0 103.5 L 0.5 99 Z " /><path fill="rgb(183,146,146)" stroke="rgb(183,146,146)" stroke-width="1" opacity="1" d="M 135.5 99 L 123 112.5 L 145.5 136 L 122 112.5 L 135.5 99 Z " /><path fill="rgb(183,146,146)" stroke="rgb(183,146,146)" stroke-width="1" opacity="1" d="M 205.5 100 L 208 100.5 L 205.5 101 L 205.5 100 Z " /><path fill="rgb(183,146,146)" stroke="rgb(183,146,146)" stroke-width="1" opacity="1" d="M 224.5 100 L 225 104.5 L 224 104.5 L 224.5 100 Z " /><path fill="rgb(183,146,146)" stroke="rgb(183,146,146)" stroke-width="1" opacity="1" d="M 196.5 101 L 199 101.5 L 196.5 102 L 196.5 101 Z " /><path fill="rgb(183,146,146)" stroke="rgb(183,146,146)" stroke-width="1" opacity="1" d="M 4.5 103 L 5 121.5 L 4 121.5 L 4.5 103 Z " /><path fill="rgb(183,146,146)" stroke="rgb(183,146,146)" stroke-width="1" opacity="1" d="M 184.5 103 L 185 105.5 L 184 105.5 L 184.5 103 Z " /><path fill="rgb(183,146,146)" stroke="rgb(183,146,146)" stroke-width="1" opacity="1" d="M 220.5 103 L 221 121.5 L 220 121.5 L 220.5 103 Z " /><path fill="rgb(183,146,146)" stroke="rgb(183,146,146)" stroke-width="1" opacity="1" d="M 44.5 104 L 45 109.5 L 44 109.5 L 44.5 104 Z " /><path fill="rgb(183,146,146)" stroke="rgb(183,146,146)" stroke-width="1" opacity="1" d="M 34.5 105 L 35 109.5 L 34 109.5 L 34.5 105 Z " /><path fill="rgb(183,146,146)" stroke="rgb(183,146,146)" stroke-width="1" opacity="1" d="M 180.5 105 L 181 110.5 L 180 110.5 L 180.5 105 Z " /><path fill="rgb(183,146,146)" stroke="rgb(183,146,146)" stroke-width="1" opacity="1" d="M 204.5 105 L 207 105.5 L 204.5 106 L 204.5 105 Z " /><path fill="rgb(183,146,146)" stroke="rgb(183,146,146)" stroke-width="1" opacity="1" d="M 30.5 106 L 31 109.5 L 30 109.5 L 30.5 106 Z " /><path fill="rgb(183,146,146)" stroke="rgb(183,146,146)" stroke-width="1" opacity="1" d="M 192.5 106 L 196 106.5 L 191.5 108 L 192.5 106 Z " /><path fill="rgb(183,146,146)" stroke="rgb(183,146,146)" stroke-width="1" opacity="1" d="M 208.5 106 L 209.5 108 L 208.5 106 Z " /><path fill="rgb(183,146,146)" stroke="rgb(183,146,146)" stroke-width="1" opacity="1" d="M 194.5 111 L 195 115.5 L 194 115.5 L 194.5 111 Z " /><path fill="rgb(183,146,146)" stroke="rgb(183,146,146)" stroke-width="1" opacity="1" d="M 190.5 112 L 191 116.5 L 190 116.5 L 190.5 112 Z " /><path fill="rgb(183,146,146)" stroke="rgb(183,146,146)" stroke-width="1" opacity="1" d="M 44.5 115 L 45 119.5 L 44 119.5 L 44.5 115 Z " /><path fill="rgb(183,146,146)" stroke="rgb(183,146,146)" stroke-width="1" opacity="1" d="M 180.5 116 L 181 120.5 L 180 120.5 L 180.5 116 Z " /><path fill="rgb(183,146,146)" stroke="rgb(183,146,146)" stroke-width="1" opacity="1" d="M 40.5 119 L 41 121.5 L 40 121.5 L 40.5 119 Z " /><path fill="rgb(183,146,146)" stroke="rgb(183,146,146)" stroke-width="1" opacity="1" d="M 184.5 119 L 185 121.5 L 184 121.5 L 184.5 119 Z " /><path fill="rgb(183,146,146)" stroke="rgb(183,146,146)" stroke-width="1" opacity="1" d="M 191.5 119 L 193.5 122 L 191.5 119 Z " /><path fill="rgb(183,146,146)" stroke="rgb(183,146,146)" stroke-width="1" opacity="1" d="M 0.5 120 L 1 123.5 L 0 123.5 L 0.5 120 Z " /><path fill="rgb(183,146,146)" stroke="rgb(183,146,146)" stroke-width="1" opacity="1" d="M 224.5 121 L 225 124.5 L 224 124.5 L 224.5 121 Z " /><path fill="rgb(183,146,146)" stroke="rgb(183,146,146)" stroke-width="1" opacity="1" d="M 27.5 122 L 30 122.5 L 27.5 123 L 27.5 122 Z " /><path fill="rgb(183,146,146)" stroke="rgb(183,146,146)" stroke-width="1" opacity="1" d="M 112.5 122 L 125.5 136 L 112.5 123 L 89 145.5 L 112.5 122 Z " /><path fill="rgb(183,146,146)" stroke="rgb(183,146,146)" stroke-width="1" opacity="1" d="M 17.5 123 L 21 123.5 L 17.5 124 L 17.5 123 Z " /><path fill="rgb(183,146,146)" stroke="rgb(183,146,146)" stroke-width="1" opacity="1" d="M 9.5 124 L 10 126.5 L 9 126.5 L 9.5 124 Z " /><path fill="rgb(183,146,146)" stroke="rgb(183,146,146)" stroke-width="1" opacity="1" d="M 215.5 124 L 216 126.5 L 215 126.5 L 215.5 124 Z " /><path fill="rgb(183,146,146)" stroke="rgb(183,146,146)" stroke-width="1" opacity="1" d="M 5.5 127 L 6 129.5 L 5 129.5 L 5.5 127 Z " /><path fill="rgb(183,146,146)" stroke="rgb(183,146,146)" stroke-width="1" opacity="1" d="M 219.5 127 L 220 129.5 L 219 129.5 L 219.5 127 Z " /><path fill="rgb(183,146,146)" stroke="rgb(183,146,146)" stroke-width="1" opacity="1" d="M 190.5 128 L 189.5 130 L 190.5 128 Z " /><path fill="rgb(183,146,146)" stroke="rgb(183,146,146)" stroke-width="1" opacity="1" d="M 204.5 128 L 205.5 130 L 204.5 128 Z " /><path fill="rgb(183,146,146)" stroke="rgb(183,146,146)" stroke-width="1" opacity="1" d="M 201.5 133 L 202.5 135 L 201.5 133 Z " /><path fill="rgb(183,146,146)" stroke="rgb(183,146,146)" stroke-width="1" opacity="1" d="M 207.5 134 L 208 137.5 L 207 137.5 L 207.5 134 Z " /><path fill="rgb(183,146,146)" stroke="rgb(183,146,146)" stroke-width="1" opacity="1" d="M 118.5 136 L 96 159.5 L 112.5 177 L 154 136.5 L 113.5 178 L 118 178.5 L 107.5 179 L 107.5 178 L 112 177.5 L 95 159.5 L 118.5 136 Z " /><path fill="rgb(183,146,146)" stroke="rgb(183,146,146)" stroke-width="1" opacity="1" d="M 121.5 136 L 99 159.5 L 112.5 174 L 151 136.5 L 112.5 175 L 98 160.5 L 121.5 136 Z " /><path fill="rgb(183,146,146)" stroke="rgb(183,146,146)" stroke-width="1" opacity="1" d="M 21.5 138 L 22.5 140 L 21.5 138 Z " /><path fill="rgb(183,146,146)" stroke="rgb(183,146,146)" stroke-width="1" opacity="1" d="M 39.5 144 L 41 144.5 L 32.5 152 L 39.5 144 Z " /><path fill="rgb(183,146,146)" stroke="rgb(183,146,146)" stroke-width="1" opacity="1" d="M 170.5 148 L 169.5 150 L 170.5 148 Z " /><path fill="rgb(183,146,146)" stroke="rgb(183,146,146)" stroke-width="1" opacity="1" d="M 168.5 151 L 167.5 153 L 168.5 151 Z " /><path fill="rgb(183,146,146)" stroke="rgb(183,146,146)" stroke-width="1" opacity="1" d="M 60.5 153 L 62.5 156 L 60.5 153 Z " /><path fill="rgb(183,146,146)" stroke="rgb(183,146,146)" stroke-width="1" opacity="1" d="M 58.5 154 L 59.5 156 L 58.5 154 Z " /><path fill="rgb(183,146,146)" stroke="rgb(183,146,146)" stroke-width="1" opacity="1" d="M 163.5 154 L 162.5 156 L 163.5 154 Z " /><path fill="rgb(183,146,146)" stroke="rgb(183,146,146)" stroke-width="1" opacity="1" d="M 165.5 155 L 163.5 158 L 165.5 155 Z " /><path fill="rgb(183,146,146)" stroke="rgb(183,146,146)" stroke-width="1" opacity="1" d="M 33.5 158 L 32.5 160 L 33.5 158 Z " /><path fill="rgb(183,146,146)" stroke="rgb(183,146,146)" stroke-width="1" opacity="1" d="M 56.5 158 L 57.5 160 L 56.5 158 Z " /><path fill="rgb(183,146,146)" stroke="rgb(183,146,146)" stroke-width="1" opacity="1" d="M 168.5 158 L 167.5 160 L 168.5 158 Z " /><path fill="rgb(183,146,146)" stroke="rgb(183,146,146)" stroke-width="1" opacity="1" d="M 70.5 163 L 72.5 166 L 70.5 163 Z " /><path fill="rgb(183,146,146)" stroke="rgb(183,146,146)" stroke-width="1" opacity="1" d="M 154.5 163 L 153.5 165 L 154.5 163 Z " /><path fill="rgb(183,146,146)" stroke="rgb(183,146,146)" stroke-width="1" opacity="1" d="M 157.5 163 L 155.5 166 L 157.5 163 Z " /><path fill="rgb(183,146,146)" stroke="rgb(183,146,146)" stroke-width="1" opacity="1" d="M 173.5 163 L 174.5 165 L 173.5 163 Z " /><path fill="rgb(183,146,146)" stroke="rgb(183,146,146)" stroke-width="1" opacity="1" d="M 49.5 164 L 48.5 166 L 49.5 164 Z " /><path fill="rgb(183,146,146)" stroke="rgb(183,146,146)" stroke-width="1" opacity="1" d="M 69.5 165 L 70.5 167 L 69.5 165 Z " /><path fill="rgb(183,146,146)" stroke="rgb(183,146,146)" stroke-width="1" opacity="1" d="M 170.5 165 L 168.5 168 L 170.5 165 Z " /><path fill="rgb(183,146,146)" stroke="rgb(183,146,146)" stroke-width="1" opacity="1" d="M 65.5 167 L 66.5 169 L 65.5 167 Z " /><path fill="rgb(183,146,146)" stroke="rgb(183,146,146)" stroke-width="1" opacity="1" d="M 159.5 167 L 158.5 169 L 159.5 167 Z " /><path fill="rgb(183,146,146)" stroke="rgb(183,146,146)" stroke-width="1" opacity="1" d="M 42.5 170 L 41.5 172 L 42.5 170 Z " /><path fill="rgb(183,146,146)" stroke="rgb(183,146,146)" stroke-width="1" opacity="1" d="M 173.5 170 Q 178.5 172.5 173.5 175 L 175 172.5 L 173.5 170 Z " /><path fill="rgb(183,146,146)" stroke="rgb(183,146,146)" stroke-width="1" opacity="1" d="M 182.5 170 L 183.5 172 L 182.5 170 Z " /><path fill="rgb(183,146,146)" stroke="rgb(183,146,146)" stroke-width="1" opacity="1" d="M 21.5 171 L 22.5 173 L 21.5 171 Z " /><path fill="rgb(183,146,146)" stroke="rgb(183,146,146)" stroke-width="1" opacity="1" d="M 49.5 171 L 49.5 174 L 47 173.5 L 49.5 171 Z " /><path fill="rgb(183,146,146)" stroke="rgb(183,146,146)" stroke-width="1" opacity="1" d="M 170.5 171 L 167.5 175 L 170.5 171 Z " /><path fill="rgb(183,146,146)" stroke="rgb(183,146,146)" stroke-width="1" opacity="1" d="M 23.5 174 L 24.5 176 L 23.5 174 Z " /><path fill="rgb(183,146,146)" stroke="rgb(183,146,146)" stroke-width="1" opacity="1" d="M 179.5 175 L 180.5 177 L 179.5 175 Z " /><path fill="rgb(183,146,146)" stroke="rgb(183,146,146)" stroke-width="1" opacity="1" d="M 31.5 177 L 32.5 179 L 31.5 177 Z " /><path fill="rgb(183,146,146)" stroke="rgb(183,146,146)" stroke-width="1" opacity="1" d="M 52.5 177 L 53.5 179 L 55 178.5 L 52 180.5 L 52 178.5 L 52.5 177 Z " /><path fill="rgb(183,146,146)" stroke="rgb(183,146,146)" stroke-width="1" opacity="1" d="M 123.5 177 L 126 177.5 L 123.5 178 L 123.5 177 Z " /><path fill="rgb(183,146,146)" stroke="rgb(183,146,146)" stroke-width="1" opacity="1" d="M 176.5 177 L 173.5 181 L 176.5 177 Z " /><path fill="rgb(183,146,146)" stroke="rgb(183,146,146)" stroke-width="1" opacity="1" d="M 193.5 177 L 192.5 179 L 193.5 177 Z " /><path fill="rgb(183,146,146)" stroke="rgb(183,146,146)" stroke-width="1" opacity="1" d="M 204.5 177 L 203.5 179 L 204.5 177 Z " /><path fill="rgb(183,146,146)" stroke="rgb(183,146,146)" stroke-width="1" opacity="1" d="M 26.5 178 L 27.5 180 L 26.5 178 Z " /><path fill="rgb(183,146,146)" stroke="rgb(183,146,146)" stroke-width="1" opacity="1" d="M 185.5 178 L 184.5 180 L 185.5 178 Z " /><path fill="rgb(183,146,146)" stroke="rgb(183,146,146)" stroke-width="1" opacity="1" d="M 198.5 178 L 197.5 180 L 198.5 178 Z " /><path fill="rgb(183,146,146)" stroke="rgb(183,146,146)" stroke-width="1" opacity="1" d="M 60.5 179 L 59.5 181 L 60.5 179 Z " /><path fill="rgb(183,146,146)" stroke="rgb(183,146,146)" stroke-width="1" opacity="1" d="M 170.5 179 L 171.5 181 L 170.5 179 Z " /><path fill="rgb(183,146,146)" stroke="rgb(183,146,146)" stroke-width="1" opacity="1" d="M 179.5 179 L 175.5 184 L 179.5 179 Z " /><path fill="rgb(183,146,146)" stroke="rgb(183,146,146)" stroke-width="1" opacity="1" d="M 105.5 180 L 110 180.5 L 105.5 181 L 105.5 180 Z " /><path fill="rgb(183,146,146)" stroke="rgb(183,146,146)" stroke-width="1" opacity="1" d="M 116.5 180 L 121 180.5 L 116.5 181 L 116.5 180 Z " /><path fill="rgb(183,146,146)" stroke="rgb(183,146,146)" stroke-width="1" opacity="1" d="M 201.5 181 L 199.5 184 L 201.5 181 Z " /><path fill="rgb(183,146,146)" stroke="rgb(183,146,146)" stroke-width="1" opacity="1" d="M 62.5 183 L 61.5 185 L 62.5 183 Z " /><path fill="rgb(183,146,146)" stroke="rgb(183,146,146)" stroke-width="1" opacity="1" d="M 164.5 183 L 165.5 185 L 164.5 183 Z " /><path fill="rgb(183,146,146)" stroke="rgb(183,146,146)" stroke-width="1" opacity="1" d="M 78.5 184 L 77.5 186 L 78.5 184 Z " /><path fill="rgb(183,146,146)" stroke="rgb(183,146,146)" stroke-width="1" opacity="1" d="M 119.5 184 L 122 184.5 L 119.5 185 L 119.5 184 Z " /><path fill="rgb(183,146,146)" stroke="rgb(183,146,146)" stroke-width="1" opacity="1" d="M 26.5 185 L 30.5 190 L 26.5 185 Z " /><path fill="rgb(183,146,146)" stroke="rgb(183,146,146)" stroke-width="1" opacity="1" d="M 32.5 185 L 39.5 193 L 32.5 185 Z " /><path fill="rgb(183,146,146)" stroke="rgb(183,146,146)" stroke-width="1" opacity="1" d="M 55.5 185 L 54.5 187 L 55.5 185 Z " /><path fill="rgb(183,146,146)" stroke="rgb(183,146,146)" stroke-width="1" opacity="1" d="M 146.5 185 L 150 185.5 L 146.5 186 L 146.5 185 Z " /><path fill="rgb(183,146,146)" stroke="rgb(183,146,146)" stroke-width="1" opacity="1" d="M 192.5 185 L 185.5 193 L 192.5 185 Z " /><path fill="rgb(183,146,146)" stroke="rgb(183,146,146)" stroke-width="1" opacity="1" d="M 151.5 186 L 152.5 188 L 151.5 186 Z " /><path fill="rgb(183,146,146)" stroke="rgb(183,146,146)" stroke-width="1" opacity="1" d="M 195.5 188 L 188.5 196 L 195.5 188 Z " /><path fill="rgb(183,146,146)" stroke="rgb(183,146,146)" stroke-width="1" opacity="1" d="M 85.5 191 L 86.5 193 L 85.5 191 Z " /><path fill="rgb(183,146,146)" stroke="rgb(183,146,146)" stroke-width="1" opacity="1" d="M 46.5 192 L 47.5 194 L 46.5 192 Z " /><path fill="rgb(183,146,146)" stroke="rgb(183,146,146)" stroke-width="1" opacity="1" d="M 178.5 192 L 177.5 194 L 178.5 192 Z " /><path fill="rgb(183,146,146)" stroke="rgb(183,146,146)" stroke-width="1" opacity="1" d="M 34.5 193 L 38.5 198 L 34.5 193 Z " /><path fill="rgb(183,146,146)" stroke="rgb(183,146,146)" stroke-width="1" opacity="1" d="M 148.5 193 L 147.5 195 L 148.5 193 Z " /><path fill="rgb(183,146,146)" stroke="rgb(183,146,146)" stroke-width="1" opacity="1" d="M 143.5 194 L 144.5 196 L 143.5 194 Z " /><path fill="rgb(183,146,146)" stroke="rgb(183,146,146)" stroke-width="1" opacity="1" d="M 114.5 195 L 115.5 197 L 114.5 195 Z " /><path fill="rgb(183,146,146)" stroke="rgb(183,146,146)" stroke-width="1" opacity="1" d="M 44.5 196 L 45.5 198 L 44.5 196 Z " /><path fill="rgb(183,146,146)" stroke="rgb(183,146,146)" stroke-width="1" opacity="1" d="M 180.5 196 L 179.5 198 L 180.5 196 Z " /><path fill="rgb(183,146,146)" stroke="rgb(183,146,146)" stroke-width="1" opacity="1" d="M 48.5 199 L 49.5 201 L 48.5 199 Z " /><path fill="rgb(183,146,146)" stroke="rgb(183,146,146)" stroke-width="1" opacity="1" d="M 176.5 199 L 175.5 201 L 176.5 199 Z " /><path fill="rgb(183,146,146)" stroke="rgb(183,146,146)" stroke-width="1" opacity="1" d="M 183.5 199 L 182.5 201 L 183.5 199 Z " /><path fill="rgb(183,146,146)" stroke="rgb(183,146,146)" stroke-width="1" opacity="1" d="M 42.5 200 L 43.5 202 L 42.5 200 Z " /><path fill="rgb(183,146,146)" stroke="rgb(183,146,146)" stroke-width="1" opacity="1" d="M 114.5 202 L 118 202.5 L 114.5 203 L 114.5 202 Z " /><path fill="rgb(183,146,146)" stroke="rgb(183,146,146)" stroke-width="1" opacity="1" d="M 46.5 203 L 47.5 205 L 46.5 203 Z " /><path fill="rgb(183,146,146)" stroke="rgb(183,146,146)" stroke-width="1" opacity="1" d="M 130.5 203 L 132 203.5 L 130 204 L 129.5 207 L 129 204.5 L 130.5 203 Z " /><path fill="rgb(183,146,146)" stroke="rgb(183,146,146)" stroke-width="1" opacity="1" d="M 170.5 203 L 169.5 205 L 170.5 203 Z " /><path fill="rgb(183,146,146)" stroke="rgb(183,146,146)" stroke-width="1" opacity="1" d="M 49.5 205 L 50.5 207 L 49.5 205 Z " /><path fill="rgb(183,146,146)" stroke="rgb(183,146,146)" stroke-width="1" opacity="1" d="M 95.5 206 L 96 208.5 L 95 208.5 L 95.5 206 Z " /><path fill="rgb(183,146,146)" stroke="rgb(183,146,146)" stroke-width="1" opacity="1" d="M 111.5 206 L 117 206.5 L 110.5 208 L 111.5 206 Z " /><path fill="rgb(183,146,146)" stroke="rgb(183,146,146)" stroke-width="1" opacity="1" d="M 132.5 208 L 135 208.5 L 132.5 209 L 132.5 208 Z " /><path fill="rgb(183,146,146)" stroke="rgb(183,146,146)" stroke-width="1" opacity="1" d="M 123.5 209 L 126 209.5 L 123.5 210 L 123.5 209 Z " /><path fill="rgb(183,146,146)" stroke="rgb(183,146,146)" stroke-width="1" opacity="1" d="M 98.5 215 L 101 215.5 L 98.5 216 L 98.5 215 Z " /><path fill="rgb(183,146,146)" stroke="rgb(183,146,146)" stroke-width="1" opacity="1" d="M 124.5 215 L 127 215.5 L 124.5 216 L 124.5 215 Z " /><path fill="rgb(183,146,146)" stroke="rgb(183,146,146)" stroke-width="1" opacity="1" d="M 104.5 220 L 112 220.5 L 104.5 221 L 104.5 220 Z " /><path fill="rgb(183,146,146)" stroke="rgb(183,146,146)" stroke-width="1" opacity="1" d="M 113.5 220 L 121 220.5 L 113.5 221 L 113.5 220 Z " /><path fill="rgb(183,146,146)" stroke="rgb(183,146,146)" stroke-width="1" opacity="1" d="M 101.5 224 L 105 224.5 L 101.5 225 L 101.5 224 Z " /><path fill="rgb(183,146,146)" stroke="rgb(183,146,146)" stroke-width="1" opacity="1" d="M 121.5 224 L 126 224.5 L 121.5 225 L 121.5 224 Z " /><path fill="rgb(46,46,46)" stroke="rgb(46,46,46)" stroke-width="1" opacity="1" d="M 104.5 0 L 110 0.5 L 104.5 1 L 104.5 0 Z " /><path fill="rgb(46,46,46)" stroke="rgb(46,46,46)" stroke-width="1" opacity="1" d="M 117.5 0 L 121 0.5 L 117.5 1 L 117.5 0 Z " /><path fill="rgb(46,46,46)" stroke="rgb(46,46,46)" stroke-width="1" opacity="1" d="M 45.5 22 L 44.5 24 L 45.5 22 Z " /><path fill="rgb(46,46,46)" stroke="rgb(46,46,46)" stroke-width="1" opacity="1" d="M 177.5 25 L 178.5 27 L 177.5 25 Z " /><path fill="rgb(46,46,46)" stroke="rgb(46,46,46)" stroke-width="1" opacity="1" d="M 40.5 26 L 39.5 28 L 40.5 26 Z " /><path fill="rgb(46,46,46)" stroke="rgb(46,46,46)" stroke-width="1" opacity="1" d="M 42.5 29 L 40.5 32 L 42.5 29 Z " /><path fill="rgb(46,46,46)" stroke="rgb(46,46,46)" stroke-width="1" opacity="1" d="M 182.5 29 L 184.5 32 L 182.5 29 Z " /><path fill="rgb(46,46,46)" stroke="rgb(46,46,46)" stroke-width="1" opacity="1" d="M 26.5 40 L 25.5 42 L 26.5 40 Z " /><path fill="rgb(46,46,46)" stroke="rgb(46,46,46)" stroke-width="1" opacity="1" d="M 30.5 41 L 28.5 44 L 30.5 41 Z " /><path fill="rgb(46,46,46)" stroke="rgb(46,46,46)" stroke-width="1" opacity="1" d="M 194.5 41 L 195.5 43 L 194.5 41 Z " /><path fill="rgb(46,46,46)" stroke="rgb(46,46,46)" stroke-width="1" opacity="1" d="M 199.5 41 L 200.5 43 L 199.5 41 Z " /><path fill="rgb(46,46,46)" stroke="rgb(46,46,46)" stroke-width="1" opacity="1" d="M 109.5 44 L 115 44.5 L 109.5 45 L 109.5 44 Z " /><path fill="rgb(46,46,46)" stroke="rgb(46,46,46)" stroke-width="1" opacity="1" d="M 103.5 46 L 106 46.5 L 103.5 47 L 103.5 46 Z " /><path fill="rgb(46,46,46)" stroke="rgb(46,46,46)" stroke-width="1" opacity="1" d="M 119.5 46 L 122 46.5 L 119.5 47 L 119.5 46 Z " /><path fill="rgb(46,46,46)" stroke="rgb(46,46,46)" stroke-width="1" opacity="1" d="M 112.5 55 L 115.5 59 L 112.5 56 L 79 88.5 L 112.5 55 Z " /><path fill="rgb(46,46,46)" stroke="rgb(46,46,46)" stroke-width="1" opacity="1" d="M 152.5 59 L 153.5 61 L 152.5 59 Z " /><path fill="rgb(46,46,46)" stroke="rgb(46,46,46)" stroke-width="1" opacity="1" d="M 117.5 60 L 119.5 63 L 117.5 60 Z " /><path fill="rgb(46,46,46)" stroke="rgb(46,46,46)" stroke-width="1" opacity="1" d="M 157.5 61 L 162.5 67 L 157.5 61 Z " /><path fill="rgb(46,46,46)" stroke="rgb(46,46,46)" stroke-width="1" opacity="1" d="M 66.5 62 L 62.5 67 L 66.5 62 Z " /><path fill="rgb(46,46,46)" stroke="rgb(46,46,46)" stroke-width="1" opacity="1" d="M 121.5 65 L 98.5 89 L 121.5 65 Z " /><path fill="rgb(46,46,46)" stroke="rgb(46,46,46)" stroke-width="1" opacity="1" d="M 164.5 71 L 167 71.5 Q 164.9 74.8 164.5 71 Z " /><path fill="rgb(46,46,46)" stroke="rgb(46,46,46)" stroke-width="1" opacity="1" d="M 135.5 72 L 135.5 75 Q 134.3 72.8 133 75.5 L 134 76.5 L 130.5 80 Q 129.3 77.8 128 80.5 Q 130.8 82.3 126.5 84 Q 125.3 81.7 124 84.5 L 125 85.5 L 121.5 89 Q 120.3 86.8 119 89.5 Q 121.8 91.3 117.5 93 Q 116.3 90.8 115 93.5 L 116 94.5 L 112.5 98 L 109 94.5 Q 111.2 93.3 108.5 92 L 107.5 93 L 104 89.5 L 106.5 89 L 112 94.5 Q 109.7 95.8 112.5 97 Q 115.2 95.8 113 94.5 L 135.5 72 Z " /><path fill="rgb(46,46,46)" stroke="rgb(46,46,46)" stroke-width="1" opacity="1" d="M 168.5 74 L 167.5 76 L 168.5 74 Z " /><path fill="rgb(46,46,46)" stroke="rgb(46,46,46)" stroke-width="1" opacity="1" d="M 136.5 79 L 137.5 81 L 136.5 79 Z " /><path fill="rgb(46,46,46)" stroke="rgb(46,46,46)" stroke-width="1" opacity="1" d="M 139.5 82 L 142.5 86 L 139.5 82 Z " /><path fill="rgb(46,46,46)" stroke="rgb(46,46,46)" stroke-width="1" opacity="1" d="M 144.5 87 L 146.5 90 L 144.5 87 Z " /><path fill="rgb(46,46,46)" stroke="rgb(46,46,46)" stroke-width="1" opacity="1" d="M 72.5 89 L 75 89.5 Q 72.8 90.8 75.5 92 L 76.5 91 L 80 94.5 Q 77.8 95.8 80.5 97 Q 82.3 94.3 84 98.5 Q 81.7 99.8 84.5 101 L 85.5 100 L 89 103.5 Q 86.8 104.8 89.5 106 Q 91.3 103.2 93 107.5 Q 90.8 108.8 93.5 110 L 94.5 109 L 98 112.5 L 94.5 116 Q 93.3 113.7 92 116.5 Q 94.8 118.2 90.5 120 L 89 118.5 L 94.5 113 Q 95.8 115.2 97 112.5 Q 95.8 109.7 94.5 112 L 72.5 89 Z " /><path fill="rgb(46,46,46)" stroke="rgb(46,46,46)" stroke-width="1" opacity="1" d="M 148.5 91 L 151.5 95 L 148.5 91 Z " /><path fill="rgb(46,46,46)" stroke="rgb(46,46,46)" stroke-width="1" opacity="1" d="M 153.5 96 L 155.5 99 L 153.5 96 Z " /><path fill="rgb(46,46,46)" stroke="rgb(46,46,46)" stroke-width="1" opacity="1" d="M 136.5 98 L 159.5 122 L 136.5 98 Z " /><path fill="rgb(46,46,46)" stroke="rgb(46,46,46)" stroke-width="1" opacity="1" d="M 157.5 100 L 160.5 104 L 157.5 100 Z " /><path fill="rgb(46,46,46)" stroke="rgb(46,46,46)" stroke-width="1" opacity="1" d="M 46.5 103 L 47 105.5 L 46 105.5 L 46.5 103 Z " /><path fill="rgb(46,46,46)" stroke="rgb(46,46,46)" stroke-width="1" opacity="1" d="M 64.5 103 L 89 126.5 L 65.5 104 L 56 112.5 L 88.5 146 L 55 112.5 L 64.5 103 Z " /><path fill="rgb(46,46,46)" stroke="rgb(46,46,46)" stroke-width="1" opacity="1" d="M 178.5 103 L 179 105.5 L 178 105.5 L 178.5 103 Z " /><path fill="rgb(46,46,46)" stroke="rgb(46,46,46)" stroke-width="1" opacity="1" d="M 0.5 104 L 1 108.5 L 0 108.5 L 0.5 104 Z " /><path fill="rgb(46,46,46)" stroke="rgb(46,46,46)" stroke-width="1" opacity="1" d="M 135.5 104 L 136 106.5 L 130.5 112 Q 129.3 109.7 128 112.5 Q 129.3 115.2 130.5 113 L 153 135.5 L 150 135.5 Q 152.3 134.3 149.5 133 L 148.5 134 L 145 130.5 Q 147.3 129.3 144.5 128 Q 142.8 130.8 141 126.5 Q 143.3 125.3 140.5 124 L 139.5 125 L 127 112.5 L 135.5 104 Z " /><path fill="rgb(46,46,46)" stroke="rgb(46,46,46)" stroke-width="1" opacity="1" d="M 162.5 105 L 164.5 108 L 162.5 105 Z " /><path fill="rgb(46,46,46)" stroke="rgb(46,46,46)" stroke-width="1" opacity="1" d="M 224.5 105 L 225 109.5 L 224 109.5 L 224.5 105 Z " /><path fill="rgb(46,46,46)" stroke="rgb(46,46,46)" stroke-width="1" opacity="1" d="M 166.5 109 Q 173.5 112.5 166.5 116 L 169 112.5 L 166.5 109 Z " /><path fill="rgb(46,46,46)" stroke="rgb(46,46,46)" stroke-width="1" opacity="1" d="M 44.5 110 L 45 114.5 L 44 114.5 L 44.5 110 Z " /><path fill="rgb(46,46,46)" stroke="rgb(46,46,46)" stroke-width="1" opacity="1" d="M 180.5 111 L 181 115.5 L 180 115.5 L 180.5 111 Z " /><path fill="rgb(46,46,46)" stroke="rgb(46,46,46)" stroke-width="1" opacity="1" d="M 0.5 115 L 1 119.5 L 0 119.5 L 0.5 115 Z " /><path fill="rgb(46,46,46)" stroke="rgb(46,46,46)" stroke-width="1" opacity="1" d="M 224.5 116 L 225 120.5 L 224 120.5 L 224.5 116 Z " /><path fill="rgb(46,46,46)" stroke="rgb(46,46,46)" stroke-width="1" opacity="1" d="M 164.5 117 L 162.5 120 L 164.5 117 Z " /><path fill="rgb(46,46,46)" stroke="rgb(46,46,46)" stroke-width="1" opacity="1" d="M 46.5 118 L 47 120.5 L 46 120.5 L 46.5 118 Z " /><path fill="rgb(46,46,46)" stroke="rgb(46,46,46)" stroke-width="1" opacity="1" d="M 178.5 118 L 179 120.5 L 178 120.5 L 178.5 118 Z " /><path fill="rgb(46,46,46)" stroke="rgb(46,46,46)" stroke-width="1" opacity="1" d="M 112.5 127 L 116 130.5 Q 113.7 131.8 116.5 133 Q 118.2 130.2 120 134.5 L 118.5 136 L 113 130.5 Q 115.2 129.3 112.5 128 Q 109.7 129.3 112 130.5 L 89.5 153 L 89 150.5 L 103.5 136 Q 104.8 138.3 106 135.5 Q 103.2 133.8 107.5 132 Q 108.8 134.3 110 131.5 L 109 130.5 L 112.5 127 Z " /><path fill="rgb(46,46,46)" stroke="rgb(46,46,46)" stroke-width="1" opacity="1" d="M 126.5 136 L 104 159.5 L 112.5 169 L 116 166.5 L 112.5 170 L 103 160.5 L 126.5 136 Z " /><path fill="rgb(46,46,46)" stroke="rgb(46,46,46)" stroke-width="1" opacity="1" d="M 145.5 136 L 144.5 138 L 145.5 136 Z " /><path fill="rgb(46,46,46)" stroke="rgb(46,46,46)" stroke-width="1" opacity="1" d="M 142.5 139 L 139.5 143 L 142.5 139 Z " /><path fill="rgb(46,46,46)" stroke="rgb(46,46,46)" stroke-width="1" opacity="1" d="M 137.5 144 L 135.5 147 L 137.5 144 Z " /><path fill="rgb(46,46,46)" stroke="rgb(46,46,46)" stroke-width="1" opacity="1" d="M 133.5 148 L 130.5 152 L 133.5 148 Z " /><path fill="rgb(46,46,46)" stroke="rgb(46,46,46)" stroke-width="1" opacity="1" d="M 165.5 152 L 166.5 154 L 164 153.5 L 165.5 152 Z " /><path fill="rgb(46,46,46)" stroke="rgb(46,46,46)" stroke-width="1" opacity="1" d="M 128.5 153 L 126.5 156 L 128.5 153 Z " /><path fill="rgb(46,46,46)" stroke="rgb(46,46,46)" stroke-width="1" opacity="1" d="M 60.5 156 L 62.5 159 L 60.5 156 Z " /><path fill="rgb(46,46,46)" stroke="rgb(46,46,46)" stroke-width="1" opacity="1" d="M 124.5 157 L 121.5 161 L 124.5 157 Z " /><path fill="rgb(46,46,46)" stroke="rgb(46,46,46)" stroke-width="1" opacity="1" d="M 64.5 158 L 68 161.5 L 67 162.5 L 68.5 165 L 66 162.5 L 67 161.5 L 64.5 158 Z " /><path fill="rgb(46,46,46)" stroke="rgb(46,46,46)" stroke-width="1" opacity="1" d="M 162.5 158 L 158.5 163 L 158 160.5 L 159.5 159 Q 161 161.5 162.5 158 Z " /><path fill="rgb(46,46,46)" stroke="rgb(46,46,46)" stroke-width="1" opacity="1" d="M 119.5 162 L 117.5 165 L 119.5 162 Z " /><path fill="rgb(46,46,46)" stroke="rgb(46,46,46)" stroke-width="1" opacity="1" d="M 152.5 165 L 152.5 168 Q 149.5 166.5 152.5 165 Z " /><path fill="rgb(46,46,46)" stroke="rgb(46,46,46)" stroke-width="1" opacity="1" d="M 73.5 166 L 72.5 168 L 73.5 166 Z " /><path fill="rgb(46,46,46)" stroke="rgb(46,46,46)" stroke-width="1" opacity="1" d="M 76.5 168 L 75.5 170 L 76.5 168 Z " /><path fill="rgb(46,46,46)" stroke="rgb(46,46,46)" stroke-width="1" opacity="1" d="M 148.5 168 L 149.5 170 L 148.5 168 Z " /><path fill="rgb(46,46,46)" stroke="rgb(46,46,46)" stroke-width="1" opacity="1" d="M 83.5 172 L 82.5 174 L 83.5 172 Z " /><path fill="rgb(46,46,46)" stroke="rgb(46,46,46)" stroke-width="1" opacity="1" d="M 205.5 175 L 204.5 177 L 205.5 175 Z " /><path fill="rgb(46,46,46)" stroke="rgb(46,46,46)" stroke-width="1" opacity="1" d="M 103.5 178 L 107 178.5 L 103.5 179 L 103.5 178 Z " /><path fill="rgb(46,46,46)" stroke="rgb(46,46,46)" stroke-width="1" opacity="1" d="M 118.5 178 L 122 178.5 L 118.5 179 L 118.5 178 Z " /><path fill="rgb(46,46,46)" stroke="rgb(46,46,46)" stroke-width="1" opacity="1" d="M 110.5 180 L 116 180.5 L 110.5 181 L 110.5 180 Z " /><path fill="rgb(46,46,46)" stroke="rgb(46,46,46)" stroke-width="1" opacity="1" d="M 24.5 182 L 25.5 184 L 24.5 182 Z " /><path fill="rgb(46,46,46)" stroke="rgb(46,46,46)" stroke-width="1" opacity="1" d="M 29.5 182 L 31.5 185 L 29.5 182 Z " /><path fill="rgb(46,46,46)" stroke="rgb(46,46,46)" stroke-width="1" opacity="1" d="M 195.5 182 L 193.5 185 L 195.5 182 Z " /><path fill="rgb(46,46,46)" stroke="rgb(46,46,46)" stroke-width="1" opacity="1" d="M 31.5 190 L 33.5 193 L 31.5 190 Z " /><path fill="rgb(46,46,46)" stroke="rgb(46,46,46)" stroke-width="1" opacity="1" d="M 40.5 193 L 42.5 196 L 40.5 193 Z " /><path fill="rgb(46,46,46)" stroke="rgb(46,46,46)" stroke-width="1" opacity="1" d="M 184.5 193 L 183.5 195 L 184.5 193 Z " /><path fill="rgb(46,46,46)" stroke="rgb(46,46,46)" stroke-width="1" opacity="1" d="M 185.5 197 L 184.5 199 L 185.5 197 Z " /><path fill="rgb(46,46,46)" stroke="rgb(46,46,46)" stroke-width="1" opacity="1" d="M 40.5 198 L 41.5 200 L 40.5 198 Z " /><path fill="rgb(46,46,46)" stroke="rgb(46,46,46)" stroke-width="1" opacity="1" d="M 93.5 219 L 96 219.5 L 93.5 220 L 93.5 219 Z " /><path fill="rgb(46,46,46)" stroke="rgb(46,46,46)" stroke-width="1" opacity="1" d="M 129.5 219 L 132 219.5 L 129.5 220 L 129.5 219 Z " /><path fill="rgb(46,46,46)" stroke="rgb(46,46,46)" stroke-width="1" opacity="1" d="M 101.5 220 L 104 220.5 L 101.5 221 L 101.5 220 Z " /><path fill="rgb(46,46,46)" stroke="rgb(46,46,46)" stroke-width="1" opacity="1" d="M 105.5 224 L 110 224.5 L 105.5 225 L 105.5 224 Z " /><path fill="rgb(46,46,46)" stroke="rgb(46,46,46)" stroke-width="1" opacity="1" d="M 116.5 224 L 121 224.5 L 116.5 225 L 116.5 224 Z " /><path fill="rgb(0,0,0)" stroke="rgb(0,0,0)" stroke-width="1" opacity="1" d="M 110.5 0 L 133.5 2 L 156.5 9 Q 182.1 20.4 199 40.5 Q 211 54.5 218 73.5 L 224 97.5 L 225 115.5 L 224 116.5 L 224 127.5 L 222 138.5 L 217 154.5 Q 206.1 180.1 186.5 197 Q 170.6 211.1 148.5 219 L 127.5 224 L 110.5 225 L 109.5 224 L 98.5 224 L 87.5 222 L 68.5 216 Q 42.9 204.6 26 184.5 Q 13.3 169.2 6 148.5 L 1 126.5 L 0 109.5 L 1 108.5 L 1 97.5 L 4 82.5 L 13 59.5 Q 23.1 41.1 38.5 28 Q 51.7 16.7 68.5 9 L 86.5 3 L 96.5 1 L 109.5 1 L 110.5 0 Z M 101 4 L 85 7 L 73 11 Q 56 18 43 29 Q 26 42 16 62 L 9 78 L 4 102 L 4 124 L 8 144 Q 15 167 29 183 Q 41 197 59 207 L 79 216 L 102 221 L 132 220 L 147 216 Q 168 209 184 195 Q 199 182 209 164 L 217 144 L 221 124 L 221 102 L 216 78 Q 209 57 196 43 Q 179 22 153 11 L 132 5 Q 125 7 124 4 L 101 4 Z " /><path fill="rgb(0,0,0)" stroke="rgb(0,0,0)" stroke-width="1" opacity="1" d="M 101.5 45 L 122.5 45 L 137.5 49 Q 155.3 56.3 166 70.5 Q 175 81.5 179 97.5 L 180 102.5 L 180 123.5 Q 173.8 152.3 153.5 167 L 131.5 178 L 123.5 180 L 102.5 180 Q 77.4 175.1 63 159.5 Q 53.2 149.3 48 134.5 L 45 122.5 L 45 101.5 Q 51 73.5 70.5 59 Q 82.7 48.7 101.5 45 Z M 104 46 Q 84 49 72 60 Q 52 75 46 104 L 46 121 L 48 130 Q 53 147 64 159 Q 78 175 104 179 L 122 179 L 131 177 Q 148 172 159 161 Q 174 146 179 121 L 179 104 L 178 99 Q 174 83 166 73 Q 155 58 137 50 L 122 46 L 104 46 Z " /><path fill="rgb(0,0,0)" stroke="rgb(0,0,0)" stroke-width="1" opacity="1" d="M 112.5 48 L 129 65.5 L 106 89.5 L 111.5 95 L 113.5 95 L 136.5 72 L 177 112.5 L 159.5 129 L 135.5 106 L 130 111.5 L 130 113.5 L 153 136.5 L 112.5 177 L 96 159.5 L 119 135.5 L 113.5 130 L 111.5 130 L 88.5 153 L 48 112.5 L 65.5 96 L 89.5 119 L 95 113.5 L 95 111.5 L 72 88.5 L 112.5 48 Z M 113 50 L 74 89 L 76 92 L 81 95 L 84 99 Q 86 98 85 101 L 90 104 L 93 108 Q 95 107 94 110 Q 100 113 94 116 Q 95 118 93 117 L 90 121 L 89 121 L 66 98 L 50 113 L 90 151 L 104 137 L 104 135 L 108 133 Q 107 130 110 131 Q 113 125 116 131 Q 118 130 117 133 L 121 135 L 121 137 L 98 161 L 113 175 L 151 137 L 149 134 L 144 130 L 142 126 Q 139 127 140 125 L 128 113 L 137 104 L 161 127 L 175 113 L 137 74 L 134 76 L 130 81 L 126 84 Q 127 86 125 85 L 121 90 L 117 93 Q 118 95 116 94 Q 113 100 110 94 Q 107 95 108 93 L 104 89 L 127 66 L 113 50 Z " /><path fill="rgb(0,0,0)" stroke="rgb(0,0,0)" stroke-width="1" opacity="1" d="M 112.5 56 L 117 59 L 119.5 63 L 122 64.5 L 98 88.5 L 112.5 103 L 136.5 80 L 139 81 L 142.5 86 Q 144.8 85.3 144 87.5 L 148 90 L 151.5 95 Q 153.8 94.3 153 96.5 L 157 99 L 160.5 104 Q 162.8 103.3 162 105.5 L 166 108 L 169 112.5 L 166 117 L 162 119.5 L 160.5 122 L 136.5 98 L 122 112.5 L 145 136.5 L 144 139 L 139 142.5 Q 139.8 144.8 137.5 144 L 135 148 L 130 151.5 Q 130.8 153.8 128.5 153 L 126 157 L 121 160.5 Q 121.8 162.8 119.5 162 L 117 166 L 112.5 169 L 104 159.5 L 127 136.5 L 112.5 122 L 88.5 145 L 56 112.5 L 64.5 104 L 88.5 127 L 103 112.5 L 80 89.5 L 112.5 56 Z " /><path fill="rgb(220,3,3)" stroke="rgb(220,3,3)" stroke-width="1" opacity="1" d="M 101.5 9 L 123.5 9 L 124.5 10 L 135.5 11 L 151.5 16 Q 176.1 26.4 192 45.5 Q 206.1 61.9 213 85.5 L 216 101.5 L 216 123.5 L 213 139.5 Q 209 154 202 165.5 Q 192.8 180.8 179.5 192 Q 163.1 206.1 139.5 213 L 123.5 216 L 101.5 216 L 85.5 213 Q 71 209 59.5 202 Q 44.2 192.8 33 179.5 Q 18.9 163.1 12 139.5 L 9 123.5 L 9 101.5 L 12 85.5 Q 16 71 23 59.5 Q 32.2 44.2 45.5 33 Q 57.6 22.6 73.5 16 L 85.5 12 L 101.5 9 Z M 107 15 L 107 19 L 119 20 L 110 29 Q 107 31 108 35 L 122 35 L 123 36 L 125 36 L 125 31 L 115 31 L 127 19 L 127 16 L 125 15 L 107 15 Z M 93 16 L 85 19 L 83 23 Q 82 29 84 33 L 90 37 Q 98 38 102 35 L 105 30 L 104 21 L 98 16 L 93 16 Z M 133 17 L 131 19 L 128 36 Q 129 38 134 37 L 138 19 Q 137 16 133 17 Z M 150 21 L 136 37 L 138 39 Q 142 40 143 37 L 150 41 L 149 43 L 154 46 L 156 36 L 156 24 L 150 21 Z M 72 22 L 62 28 Q 61 33 63 35 L 66 36 Q 70 37 72 35 Q 77 33 76 38 Q 73 41 66 40 L 69 45 L 80 41 L 82 37 L 81 33 L 78 30 Q 73 29 72 31 Q 65 33 67 28 Q 71 25 77 26 L 76 24 Q 77 20 72 22 Z M 167 30 L 158 43 L 156 48 L 167 55 L 169 51 L 163 47 L 172 34 L 167 30 Z M 59 38 L 55 41 Q 50 44 55 46 L 61 42 L 59 38 Z M 105 40 L 94 42 L 83 46 L 67 56 Q 55 65 48 79 L 42 94 L 40 105 L 40 122 L 42 132 Q 47 147 56 159 Q 65 170 79 177 L 94 183 L 105 185 L 122 185 L 132 183 Q 147 178 159 169 Q 180 153 185 122 L 185 104 L 183 94 Q 178 78 169 67 Q 158 54 143 46 L 122 40 L 105 40 Z M 45 41 L 40 46 L 55 58 L 65 50 L 63 46 L 61 47 L 56 52 L 45 41 Z M 183 43 L 169 57 L 173 61 L 180 55 L 187 48 L 183 43 Z M 34 54 L 29 60 L 32 66 L 43 77 L 45 74 L 43 71 L 43 69 L 48 63 L 51 64 L 53 61 L 46 57 L 34 54 Z M 188 54 L 184 58 L 184 64 L 186 69 L 184 70 L 180 63 Q 178 59 176 64 L 179 72 L 184 75 Q 190 76 191 72 Q 192 65 189 63 L 191 59 Q 195 62 196 69 L 199 67 L 196 59 Q 194 54 188 54 Z M 201 70 L 198 71 L 201 79 L 186 84 L 187 89 L 203 85 L 206 92 L 209 91 L 205 77 L 202 72 Q 203 69 201 70 Z M 23 71 L 21 77 L 32 81 L 31 82 L 26 82 L 18 84 L 17 91 L 36 95 Q 38 94 37 90 L 27 88 Q 31 84 39 85 L 42 80 L 23 71 Z M 206 94 L 193 97 L 190 97 L 190 102 L 208 101 L 210 100 L 210 94 L 206 94 Z M 20 97 L 14 104 Q 13 111 15 115 L 21 119 L 30 118 Q 34 115 35 110 L 34 103 Q 31 95 20 97 Z M 205 105 L 203 106 L 200 109 L 198 115 Q 199 119 195 117 L 195 110 L 196 109 Q 197 104 193 106 L 190 113 L 191 120 L 194 122 L 198 123 L 200 122 Q 204 119 204 113 Q 206 110 207 113 Q 208 119 205 122 L 209 123 L 211 120 Q 213 111 210 108 L 205 105 Z M 28 122 L 17 124 L 15 125 L 15 130 L 35 127 L 35 122 L 28 122 Z M 195 126 L 191 128 Q 186 133 186 141 L 190 142 L 191 135 L 195 132 Q 201 131 203 136 Q 204 144 199 146 L 204 147 L 208 138 L 206 130 Q 203 125 195 126 Z M 19 132 L 16 133 L 20 149 L 24 154 L 26 153 L 24 145 L 39 140 L 37 135 L 23 139 L 20 134 Q 21 131 19 132 Z M 40 144 L 26 160 L 29 166 Q 40 166 49 161 Q 51 162 50 160 Q 49 156 43 157 L 40 152 L 42 149 L 41 146 Q 42 143 40 144 Z M 183 144 L 182 149 L 189 153 L 185 159 L 180 155 L 177 155 L 175 159 L 192 170 L 195 166 L 189 162 L 192 155 L 200 157 L 202 153 Q 194 147 183 144 Z M 52 163 L 37 176 L 41 180 L 48 174 L 50 173 L 47 182 L 47 186 L 52 190 L 64 175 L 61 172 L 52 180 L 56 167 L 52 163 Z M 173 163 L 163 174 L 167 176 L 171 170 L 175 173 L 170 180 L 174 181 L 179 175 L 181 178 L 175 184 L 178 187 Q 185 182 188 174 L 173 163 Z M 63 183 L 60 187 L 68 191 L 69 188 L 63 183 Z M 165 183 L 158 188 L 159 191 L 167 187 L 165 183 Z M 79 184 L 70 203 L 79 206 Q 85 207 89 205 L 93 199 L 92 192 L 89 188 L 79 184 Z M 147 185 L 137 187 L 140 206 L 142 207 Q 145 208 146 206 L 145 199 Q 152 199 154 195 L 153 188 Q 152 184 147 185 Z M 113 190 L 104 210 L 110 210 L 110 209 L 112 207 Q 116 208 118 206 L 120 208 L 120 210 L 126 210 L 118 192 Q 119 189 113 190 Z M 131 203 L 129 205 L 130 208 L 130 209 L 135 209 L 135 203 L 131 203 Z M 96 204 L 95 209 L 99 210 L 101 209 L 101 204 L 96 204 Z " /><path fill="rgb(220,3,3)" stroke="rgb(220,3,3)" stroke-width="1" opacity="1" d="M 90 21 Q 96.1 19.3 98 22.5 L 99 30.5 Q 98 34 92.5 33 Q 87.9 31.1 89 23.5 L 90 21 Z " /><path fill="rgb(220,3,3)" stroke="rgb(220,3,3)" stroke-width="1" opacity="1" d="M 150.5 28 L 151 29.5 L 149.5 35 L 146 34 L 150.5 28 Z " /><path fill="rgb(220,3,3)" stroke="rgb(220,3,3)" stroke-width="1" opacity="1" d="M 36.5 61 L 42 62 L 41 66 L 38 64.5 L 36.5 61 Z " /><path fill="rgb(220,3,3)" stroke="rgb(220,3,3)" stroke-width="1" opacity="1" d="M 20.5 103 Q 27.8 101.8 30 105.5 Q 31.3 110.8 28.5 112 L 21.5 113 L 18 110.5 Q 16.8 104.3 20.5 103 Z " /><path fill="rgb(220,3,3)" stroke="rgb(220,3,3)" stroke-width="1" opacity="1" d="M 36.5 155 Q 38.8 154.3 38 156.5 L 39.5 159 L 33.5 160 L 34 158.5 L 36.5 155 Z " /><path fill="rgb(220,3,3)" stroke="rgb(220,3,3)" stroke-width="1" opacity="1" d="M 81 190 L 87 193.5 Q 88.3 199.8 84.5 201 L 80.5 202 L 78 201 L 81 190 Z " /><path fill="rgb(220,3,3)" stroke="rgb(220,3,3)" stroke-width="1" opacity="1" d="M 143 190 Q 147.6 188.8 149 191.5 L 146.5 195 L 143 193.5 L 143 190 Z " /><path fill="rgb(220,3,3)" stroke="rgb(220,3,3)" stroke-width="1" opacity="1" d="M 114.5 196 L 117 202 L 113.5 203 L 113 199.5 L 114.5 196 Z " /></svg>